<svg xmlns="http://www.w3.org/2000/svg" version="1.1" width="600px" height="600px" xlink="http://www.w3.org/1999/xlink" style="overflow:hidden!important;"><g id="svga-group-wrapper" transform="scale(3 3)"><g id="svga-group-backs-single"><path id="SvgjsPath28342" d="M225 225H-25V-25h250V225z" fill="#f1d4af" stroke-width="none" opacity="1" stroke="none"></path></g><g id="svga-group-subwrapper" transform="translate(-9.999999983634211e-8 0)"><g id="svga-group-hair-back" ><path id="SvgjsPath28374" d="M19.273 278.474c-2.987 0-5.493-0.846-7.277-2.449 0.26 0.058 0.551 0.086 0.869 0.086 3.453 0 9.151-3.228 11.324-7.389 0.217-2.067-0.396-4.376-1.812-6.896 -3.315-5.838-8.82-7.466-14.648-9.189 -4.849-1.434-9.862-2.916-13.504-7.058 -9.954-10.596-9.202-23.263 2.233-37.651 -0.092-0.686-0.144-1.071-0.196-1.463 -3.866-7.445-4.552-14.183-2.053-20.081 3.215-7.589 11.649-13.6 24.39-17.383l0.078-0.022 -0.006-0.081c-0.188-2.399 0.79-5.015 2.684-7.174 2.575-2.938 6.422-4.685 10.832-4.919l0.178-0.009 -0.101-0.147c-2.886-4.215-3.457-8.688-1.566-12.274 1.472-2.79 4.241-4.593 7.055-4.593 1.668 0 3.204 0.638 4.439 1.846 0.103 0.064 0.497 0.535 0.59 0.659 1.017 1.34 1.395 2.912 1.182 4.919 -0.374-3.863-2.871-5.271-5.219-5.271 -2.852 0-5.581 1.867-6.489 4.44 -0.638 1.809-0.888 5.502 4.603 9.93l0.146-0.134c-1.75-2.598-2.347-5.018-1.775-7.19 0.577-2.192 2.337-4.074 5.237-5.6 -2.102 3.184-0.972 7.345 1.311 9.902 2.368 2.658 7.015 4.122 13.083 4.121 9.51 0 19.561-3.474 22.882-7.908 2.887-3.866 2.608-10.002 2.232-12.271 3.171 3.053 4.943 8.707 4.871 15.585 -0.113 10.844-5.03 26.601-18.489 38.301 -5.133 4.465-10.948 8.174-16.572 11.762 -1.728 1.103-3.456 2.205-5.167 3.329 -21.479 14.074-16.134 26.021-10.476 38.668 0.681 1.521 1.385 3.096 2.029 4.654 5.482 7.098 4.38 13.164 2.493 17.009C34.99 274.007 25.921 278.474 19.273 278.474L19.273 278.474z" fill="#504543" stroke-width="none" opacity="1" stroke="none"></path><path id="SvgjsPath28375" d="M12.475 191.111c0.852-1.361 2.349-3.862 4.827-6.614 12.467-14.117 39.351-14.11 51.802-22.074 4.492-2.792 13.153-11.878 5.33-3.896 -7.607 7.618-16.997 10.345-36.132 15.341C18.656 178.969 14.58 188.9 12.45 191.035 12.463 190.377 12.466 190.111 12.475 191.111zM42.065 186.044c18.531-10.538 27.64-4.63 40.413-28.171 1.319-2.504 2.089-4.04 1.927-3.741 -14.254 28.508-25.318 17.027-51.257 37.2 -1.104 0.854-4.972 3.886-4.727 5.26C28.421 196.592 27.396 194.433 42.065 186.044zM60.336 161.681c8.71-1.954 14.749-6.304 13.749-5.729 -20.646 10.732-50.717-0.626-52.951 17.25C24.177 159.171 41.118 166.536 60.336 161.681zM14.671 242.974c1.967 2.627 5.455 6.543 7.947 11.192 1.007 2.038 1.655 3.269 1.536 3.021 -0.15-0.233-0.734-1.797-1.758-3.979 -5.519-10.923-26.096-32.407-9.883-48.119C0.955 215.395 5.45 230.647 14.671 242.974zM37.148 153.208c1.112 1.929 3.154 3.298 4.97 3.814 3.627 1.172-5.838-1.214-4.942-7.852 0.154-1.678 0.952-3.258 1.145-3.711C36.638 148.252 35.984 150.327 37.148 153.208z" fill="#413230" stroke-width="none" opacity="1" stroke="none"></path><path id="SvgjsPath28376" d="M24.172 184.311c-14.06 5.821-44.699 43.764-21.156 59.208l1.699 1.207c16.558 9.814 13.79 8.106 20.289 15.289 -4.825-5.396-11.641-8.378-18.119-11.143 -2.706-1.175-5.711-2.516-8.177-4.419 -5.273-3.865-7.719-8.127-8.96-13.253C-14.371 216.803 9.198 189.661 24.172 184.311zM18.99 212.724c-2.208 7.286-2.518 14.654 0.167 22.124 1.798 3.846-0.713-7.868-0.577-9.888 0.646-9.091 4.533-16.651 10.343-23.616 8.475-11.28 20.252-14.138 34.692-21.842C45.168 187.34 26.252 189.657 18.99 212.724zM71.565 158.462c-2.912 1.841-5.708 3.029-5.574 2.941 -20.028 7.146-49.126 4.403-56.009 31.838 0 0 0.205-0.613 0.567-1.694 0.548-1.896 2.616-6.506 5.634-9.749 8.07-8.863 21.092-10.477 29.116-12.297 4.584-1.002 10.72-2.457 15.161-3.974 11.71-4.021 17.587-10.996 19.145-15.144 0.121-0.286 0.216-0.501 0.292-0.666C79.197 151.03 76.515 155.457 71.565 158.462zM79.896 149.718C80.146 149.248 80.141 149.182 79.896 149.718L79.896 149.718zM47.45 160.992c9.354 0.252 18.606-0.313 27.512-6.406 5.241-3.517 7.248-8.298 6.702-13.057 -0.076-0.789-0.115-1.153-0.104-0.972 -0.027 0.342 0.266 2.631-0.726 5.634 -0.648 1.879-1.709 3.466-3.079 4.816 0.37-0.723 0.602-1.56 0.62-2.501 -0.194 0.341-0.401 0.674-0.636 0.988 -3.322 4.435-13.373 7.908-22.882 7.908 -6.068 0.001-10.714-1.463-13.083-4.121 -2.282-2.558-3.413-6.719-1.311-9.902 -0.345 0.182-0.672 0.369-0.985 0.561 -0.983 3.555-1.464 6.757 0.521 9.06 2.653 3.077 6.233 4.825 10.177 5.602 -5.993 0.279-11.489 0.254-15.006 0.646 -14.071 1.387-14.16 8.158-14.964 10.815C23.55 160.304 29.329 160.377 47.45 160.992zM31 146c1.601-4.003 5.766-5.438 9.929-5.34 -0.963-0.574-2.038-0.879-3.179-0.879 -2.814 0-5.583 1.803-7.055 4.593 -1.89 3.586-1.319 8.06 1.566 12.274l0.101 0.147 -0.178 0.009c-4.41 0.234-8.257 1.981-10.832 4.919 -1.894 2.159-2.872 4.774-2.684 7.174l0.006 0.081 -0.078 0.022c-12.741 3.783-21.175 9.794-24.39 17.383 -2.143 5.058-1.937 10.734 0.602 16.943 -2.575-15.776 6.479-28.02 24.293-32.77 -0.505-1.557 1.681-5.714 3.897-8.558 1.298-1.666 7-6 12-4C32 155 30 151 31 146z" fill="#5f5a59" stroke-width="none" opacity="1" stroke="none"></path><path id="SvgjsPath28377" d="M79.819 136.945c0.458 2.279 0.748 8.596-2.16 12.49 -5.553 7.413-29.061 11.355-35.81 3.78 -2.465-2.763-3.387-7.021-1.07-10.11 -6.617 3.309-7.218 8.135-3.86 13.12 -14.194-11.442 6.99-20.876 6.99-7.99 0.402-2.144 0.317-4.209-1.02-5.97 0-0.011-0.01-0.03-0.03-0.04 -0.071-0.095-0.506-0.624-0.6-0.67 -6.176-6.035-18.103 3.432-10.08 15.149 -8.822 0.469-14.027 6.88-13.61 12.2 -20.399 6.058-32.254 18.669-22.41 37.55 0.053 0.4 0.104 0.791 0.22 1.41 -10.107 12.719-13.392 25.898-2.23 37.78 7.915 8.998 22.008 5.433 28.14 16.229 1.13 2.011 2.05 4.44 1.81 6.801 -2.576 4.933-9.791 8.206-12.48 7.13 9.597 9.559 39.416-7.206 24.64-26.32 -5.823-14.095-15.662-27.427 8.41-43.2 7.38-4.85 15.06-9.28 21.75-15.1C86.719 173.539 88.938 145.213 79.819 136.945zM18.599 169.165c0.025 0.389 0.171 1.045 0.26 1.38 -16.569 7.271-24.051 21.227-22.81 34.94C-12.354 187.513-0.388 175.129 18.599 169.165zM-3.331 207.405c0.02 0.021 0.03 0.04 0.04 0.061 0 0-0.02 0.01-0.02 0.02C-3.321 207.466-3.331 207.436-3.331 207.405zM71.899 183.785c-15.535 17.703-45.832 24.573-43.55 45.75 1.207 11.019 10.133 22.296 11.35 27.311 3.174 13.123-17.963 26.659-27.43 19.31 4.433 0.477 9.54-2.942 11.94-6.96 0.302-1.101 0.302-4.294-1.93-8.06 -5.682-9.708-17.007-7.609-25.5-14.44 -3.81-3.06-6.81-7.27-8.18-12 -3.542-12.195 5.291-22.773 8.35-27.4 0 0-0.357-0.704-0.4-0.79 -1.744-13.806 8.071-30.664 22.64-35.979 -0.044-0.089-0.22-1.106-0.22-1.74 -0.058-6.386 7.545-11.939 13.5-11.939 -7.29-12.228 3.765-20.163 9.51-15.08 0.046 0.022 0.415 0.359 0.58 0.58 0.02 0.01 0.04 0.029 0.04 0.05 0.97 1.14 1.33 2.56 1.35 4.03 -0.25-1.46-0.85-2.78-2.03-3.721 -3.075-4.464-20.004 4.023-3.53 14.99 -4.196-5.593-4.388-10.792 1.97-14.22 -1.868 2.829-1.264 6.942 1.13 9.819 5.876 7.062 22.977 4.923 30.75 1.011 5.573-2.813 9.361-6.896 7.93-16.73C89.706 148.64 81.552 172.8 71.899 183.785z" fill="#221512" stroke-width="none" opacity="1" stroke="none"></path></g><g id="svga-group-humanbody-single"><path id="SvgjsPath28044" d="M190.858 199.866c-6.008-10.158-13.474-11.973-19.628-13.936 -6.323-2.016-19.346-3.178-26.449-4.6 -6.86-1.373-23.153-5.789-23.339-13.488 -0.192-8.066 4.291-40.09 4.291-40.09H74.005c0 0 4.487 32.023 4.294 40.09 -0.184 7.699-16.48 12.115-23.341 13.488 -7.104 1.422-20.125 2.584-26.448 4.6 -6.156 1.963-13.624 3.777-19.632 13.936 -3.644 6.16-6.008 16.133-6.008 27.133h194C196.869 215.999 194.509 206.026 190.858 199.866z" fill="#f3d4cf" stroke-width="none" opacity="1" stroke="none"></path><path id="SvgjsPath28045" d="M121.442 167.843c2.495 10.929 18.165 13.698 26.293 15.325 21.909 4.379 33.772 5.134 42.297 19.539 2.903 4.916 5.459 15.864 5.962 24.153 1.835 0.291 0.531-17.432-5.136-26.994 -9.742-16.472-29.089-15.135-46.077-18.535C137.921 179.958 121.628 175.542 121.442 167.843L121.442 167.843zM78.558 167.843c-0.186 7.699-16.479 12.115-23.339 13.488 -16.988 3.4-36.335 2.063-46.077 18.535 -5.667 9.563-6.971 27.285-5.136 26.994 0.503-8.289 3.059-19.237 5.962-24.153 8.524-14.405 20.388-15.16 42.297-19.539C60.393 181.541 76.063 178.771 78.558 167.843L78.558 167.843z" fill="#fff4f3" stroke-width="none" opacity="1" stroke="none"></path><path id="SvgjsPath28046" d="M51.206 189.513c0 0 28.641 0.299 33.473 1.885 2.314 0.758 8.372 5.633 8.372 5.633s-6.556-3.17-8.658-3.758C79.51 191.909 51.206 189.513 51.206 189.513zM99.795 199.999c2.053-0.041 7.887-3.799 7.887-3.799s-5.574 2.059-7.342 2.16c-1.491 0.086-6.366-1.238-6.366-1.238S98.112 200.032 99.795 199.999zM117.008 192.757c6.75-1.818 29.786-3.23 29.786-3.23s-23.791-0.516-30.51 1.725c-2.252 0.752-7.562 5.16-7.562 5.16S114.786 193.354 117.008 192.757z" fill="#e4b3ab" stroke-width="none" opacity="1" stroke="none"></path><path id="SvgjsPath28047" d="M190.858 199.866c-9.741-16.471-29.122-15.142-46.077-18.535 -6.86-1.373-23.153-5.789-23.339-13.488 -0.192-8.066 4.291-40.09 4.291-40.09H74.005c0 0 4.487 32.023 4.294 40.09 -0.184 7.699-16.48 12.115-23.341 13.488 -7.104 1.422-20.125 2.584-26.448 4.6 -6.156 1.963-13.624 3.777-19.632 13.936 -3.644 6.16-6.008 16.133-6.008 27.133h194C196.869 215.999 194.509 206.026 190.858 199.866z" fill="none" stroke="#c5796d" stroke-width="1.5" opacity="1"></path></g><g id="svga-group-chinshadow-single"><path id="SvgjsPath28326" d="M74.767 128.517c0.729 5.276 4.358 31.969 4.182 39.342 -0.001 0.048-0.011 0.094-0.013 0.141 5.877 2.477 12.865 4.005 21.167 4 8.141 0.005 14.977-1.448 20.719-3.824 -0.008-0.105-0.026-0.209-0.029-0.315 -0.175-7.381 3.45-34.068 4.179-39.343l0.017-0.113H74.751L74.767 128.517z" fill="url(#SvgjsLinearGradient28327)" opacity="1"></path></g><g id="svga-group-clothes-single" ><path id="SvgjsPath28308" d="M190.188 199.647c-9.662-17.92-26.803-14.749-44.614-19.556 -1.348 1.637-13.686 17.468-16.485 25.934 -1.572-1.256-3.449-2.938-4.804-4.477 -6.628-7.46-16.453-31.601-19.75-12.749 0.717-8.463 4.614-10.327 10.025-3.234 5.817 7.633 6.033 11.575 14.333 19.875 1.466-5.831 4.273-10.037 7.966-15.201 3.573-5.005 6.435-8.945 10.566-12.492 -2.261-1.226-4.647-2.217-6.801-3.596 -13.515-8.76-5.435-17.647-17.685-19.764 -0.096 1.058-0.217 2.245-0.317 3.137 2.619 1.29 3.128 6.32-0.905 10.002 -6.41 6.742-14.866 7.077-17.552 17.429l-0.006-0.001c-0.854 3.071-1.539 7.776-1.863 10.533l-4.542 0.389c-1.847-16.224-4.261-17.811-12.157-22.824 -5.231-3.321-12.489-8.335-9.698-14.003 0.318-0.656 0.705-1.059 1.186-1.361 -0.138-1.296-0.22-2.048-0.326-3.251 -12.216 2.312-4.037 11.604-17.651 19.873 -2.06 1.247-4.075 2.097-6.543 3.416 4.879 4.251 16.31 18.506 18.561 27.717 8.378-8.476 8.442-12.181 14.294-19.847 5.04-6.597 9.156-5.921 10.021 3.007 -0.476-2.682-1.603-6.787-4.045-6.787 -2.012 0-4.109 2.844-5.147 4.217 -5.809 7.667-6.742 13.154-15.352 20 -0.596-1.716-1.294-3.438-2.128-5.043 -3.412-6.604-13.291-19.595-14.342-20.887 -4.083 1.102-9.667 1.984-13.408 2.58 -24.442 3.897-33.916 8.81-37.519 44.213 89.639-0.87 126.166-0.49 192.932-0.49C195.594 218.524 193.953 206.642 190.188 199.647z" fill="#f76eae" stroke-width="none" opacity="1" stroke="none"></path><path id="SvgjsPath28309" d="M95.717 224.342c-3.653 0-6.286-0.061-7.83-0.178 0.466-2.48 1.856-7.125 2.656-9.437 -2.555-3.227-3.274-6.568-3.908-9.518 -0.377-1.754-0.705-3.274-1.361-4.468 0.136-0.077 0.49-0.274 0.49-0.274l-0.063-0.091c-1.685-2.413-3.682-5.039-5.754-6.277l0.34-0.566c1.692-2.82 4.515-7.526 6.942-9.985 4.186 3.168 8.991 9.141 10.865 12.259l0.035 0.057 0.066-0.01c1.296-0.193 2.722-0.309 3.815-0.309 2.926-4.474 7.014-9.048 10.768-12 1.966 1.719 5.101 6.956 6.614 9.487 0.293 0.488 0.517 0.863 0.65 1.074 -2.356 1.583-4.58 4.592-5.434 5.822l-0.054 0.077 0.074 0.059c0.338 0.263 0.988 0.809 1.331 1.15 -0.691 5.103-2.874 10.362-5.725 13.645 0.685 2.18 0.951 4.674 1.32 8.126l0.123 1.141c-0.251 0.003-0.797 0.014-1.564 0.029C107.169 224.216 101.044 224.342 95.717 224.342 95.718 224.342 95.718 224.342 95.717 224.342z" fill="#141111" stroke-width="none" opacity="1"></path><path id="SvgjsPath28310" d="M113.911 202.273c-0.201 4.322-1.702 7.874-4.265 12.068 2.646-3.301 5.655-8.274 6.313-13.127 -2.801-2.801-12.774-7.511-23.341-3.521C101.263 195.991 111.48 197.412 113.911 202.273z" fill="#2c2526" stroke-width="none" opacity="1"></path><path id="SvgjsPath28311" d="M143.952 181.126c-2.462 2.676-4.609 5.634-7.094 9.113 -3.192 4.465-5.719 8.218-7.293 12.92 1.813-9.701 7.918-18.479 15.435-25.159 -7.906-1.438-11.68-8.559-13.549-15.792 1.174 3.502 2.683 7.736 9.173 11.943 2.153 1.379 4.54 2.37 6.801 3.596C147.273 177.877 143.952 181.126 143.952 181.126zM186 198c5.681 7.102 8.332 16.221 10.11 25.565 -0.919-7.689-2.586-17.72-5.923-23.918 -9.662-17.92-26.803-14.749-44.614-19.556 -0.158 0.191-0.471 0.584-0.897 1.131C159.32 183.163 176.369 185.48 186 198zM52.575 177.747c2.261-1.226 4.647-2.217 6.801-3.596 6.49-4.207 7.999-8.441 9.173-11.943C66.68 169.441 62.906 176.563 55 178c7.517 6.681 13.621 15.458 15.435 25.159 -1.574-4.702-4.101-8.455-7.293-12.92 -2.484-3.479-4.632-6.438-7.094-9.113C56.048 181.126 52.727 177.877 52.575 177.747zM55.324 181.223c-0.427-0.547-0.739-0.939-0.897-1.131 -17.812 4.807-34.952 1.636-44.614 19.556 -3.337 6.198-5.004 16.229-5.923 23.918C5.668 214.221 8.319 205.102 14 198 23.631 185.48 40.68 183.163 55.324 181.223z" fill="#545b8e" stroke-width="none" opacity="1"></path><path id="SvgjsPath28312" d="M143.952 181.126c-2.462 2.676-4.609 5.634-7.094 9.113 -3.192 4.465-5.719 8.218-7.293 12.92 1.813-9.701 7.918-18.479 15.435-25.159 -7.906-1.438-11.68-8.559-13.549-15.792 1.174 3.502 2.683 7.736 9.173 11.943 2.153 1.379 4.54 2.37 6.801 3.596C147.273 177.877 143.952 181.126 143.952 181.126zM186 198c5.681 7.102 8.332 16.221 10.11 25.565 -0.919-7.689-2.586-17.72-5.923-23.918 -9.662-17.92-26.803-14.749-44.614-19.556 -0.158 0.191-0.471 0.584-0.897 1.131C159.32 183.163 176.369 185.48 186 198zM52.575 177.747c2.261-1.226 4.647-2.217 6.801-3.596 6.49-4.207 7.999-8.441 9.173-11.943C66.68 169.441 62.906 176.563 55 178c7.517 6.681 13.621 15.458 15.435 25.159 -1.574-4.702-4.101-8.455-7.293-12.92 -2.484-3.479-4.632-6.438-7.094-9.113C56.048 181.126 52.727 177.877 52.575 177.747zM55.324 181.223c-0.427-0.547-0.739-0.939-0.897-1.131 -17.812 4.807-34.952 1.636-44.614 19.556 -3.337 6.198-5.004 16.229-5.923 23.918C5.668 214.221 8.319 205.102 14 198 23.631 185.48 40.68 183.163 55.324 181.223z" fill="#ff8bc1" stroke-width="none" opacity="1" stroke="none"></path><path id="SvgjsPath28313" d="M118.303 173c-4.485 2.492-8.283 4.938-10.802 8.379 0.979 0.283 3.556 0.964 4.767 2.375 -4.003 3.142-6.432 6.012-9.915 11.611 0.397-3.133 0.558-5.563 1.203-7.858 0.188-0.914 0.39-1.785 0.604-2.553l0.006 0.001c2.686-10.352 11.142-10.687 17.552-17.429 4.033-3.682 3.524-8.712 0.905-10.002 0.101-0.892 0.222-2.079 0.317-3.137 0.672 0.116 1.271 0.257 1.828 0.413C133.028 161.766 123.939 170.584 118.303 173zM80.601 173c4.485 2.492 9.97 5.445 12.482 8.587 -0.979 0.283-4.14 0.756-5.351 2.167 4.551 4.245 7.303 7.188 10.266 11.982 -0.397-3.133-0.908-5.935-1.554-8.229 -0.188-0.914-0.39-1.785-0.604-2.553l-0.006 0.001c-2.686-10.352-11.142-10.687-17.552-17.429 -4.033-3.682-3.524-8.712-0.905-10.002 -0.101-0.892-0.222-2.079-0.317-3.137 -0.672 0.116-1.271 0.257-1.828 0.413C68.311 162.904 75.536 170.056 80.601 173z" fill="#e85097" stroke-width="none" opacity="1" stroke="none"></path><path id="SvgjsPath28314" d="M123.859 159.785c0.569 2.32-0.34 4.21-1.75 5.82 0.01-1.72 0.16-3.45 0.319-5.15 0.08-0.84 0.171-1.689 0.25-2.529C123.219 158.295 123.639 158.896 123.859 159.785zM77.309 160.815c0.11 1.47 0.24 2.939 0.27 4.41 -1.22-1.53-1.95-3.271-1.44-5.42 0.17-0.74 0.48-1.271 0.89-1.65C77.129 159.045 77.219 159.926 77.309 160.815z" fill="#d83581" stroke-width="none" opacity="1" stroke="none"></path><path id="SvgjsPath28315" d="M192.56 200.686c-8.84-20.244-29.707-17.8-46.46-21.05 0.696-0.843 1.549-1.73 1.739-1.9 -2.635-1.86-11.126-5.595-14.239-12.38 -2.229-4.835-1.683-10.37-10.851-11.26 -0.503 2.816-1.225 9.009-1.09 12 -9.604 9.907-19.063 5.479-20.226 29.359l0.779-0.018c0 0 0.221-0.146 0.229-0.215 2.844-23.354 10.041-17.837 19.347-27.627 4.168-3.829 3.449-8.9 0.94-10.13 0.109-0.99 0.21-1.971 0.3-2.961 7.887 1.39 7.203 5.838 9.67 11.271 3.279 7.224 11.345 10.264 14.55 11.99 -4.338 3.729-7.473 8.221-10.939 13.069 -5.453 7.563-6.714 11.421-7.471 14.41 -8.276-8.33-8.281-11.981-14.2-19.74 -6.311-8.277-10.367-3.908-10.289 5.37 0.18-2.319 1.569-10.83 5.51-8.6 4.556 2.544 9.029 13.352 14.35 19.34 1.42 1.611 3.248 3.229 4.93 4.58 2.071-6.931 9.616-16.647 14.271-23.13 0.71-0.98 1.44-1.94 2.2-2.86 6.49 1.69 13.26 2.46 19.83 3.66 23.784 4.36 28.162 17.492 30.88 42.44 -37.937 0.194-79.138-0.603-192.71 0.489 1.646-16.292 4.431-29.61 14.5-36.81 4.32-3.1 9.33-4.72 14.49-5.75 7.19-1.43 14.66-2.17 21.79-4.02 0.83 1.01 1.62 2.05 2.39 3.13 8.804 12.243 11.1 14.931 14.07 22.85 10.018-7.514 14.024-21.616 19.54-24.05 3.84-1.69 5.08 6.42 5.26 8.729 0.075-9.841-4.519-15.681-13.81-0.22 -4.578 7.621-5.792 9.687-10.66 14.59 -1.955-7.948-12.36-22.256-18.44-27.5 3.772-2.028 10.592-4.438 14.24-11.3 2.409-4.707 1.339-10.294 9.69-11.89 0.09 1.029 0.2 2.05 0.31 3.08 -2.287 1.441-2.683 6.284 0.97 9.67 3.29 3.609 7.75 5.67 11.67 8.55 4.621 3.419 6.449 6.918 7.92 19.15 0.032 0.267 0.375 0.777 0.375 0.777l0.643-0.083c-0.379-8.482-1.601-15.681-6.567-19.825 -4.29-3.668-10.305-6.005-13.94-10.1 0.11-3.072-0.706-9.294-1.1-11.64 -8.308 0.811-8.378 5.859-10.14 10.279 -2.667 6.687-9.6 10.256-14.65 13.311 0.335 0.333 1.129 1.187 1.74 1.91 -6.99 1.369-14.23 1.76-21.24 2.989 -10.46 1.83-20.33 7.12-24.83 17.19 -3.418 7.642-4.409 18.603-4.66 26.99 -0.01 0.06-0.01 0.13-0.01 0.189 0.14 0.01 0.29 0.01 0.43 0.01 120.323 1.226 192.229-0.51 193.23-0.51C196.819 225.494 196.378 209.429 192.56 200.686zM122.109 165.605c0.015-2.591 0.373-5.593 0.569-7.68C124.151 158.933 125.021 162.281 122.109 165.605zM77.579 165.226c-2.446-3.068-1.66-6.042-0.55-7.07C77.261 160.228 77.537 163.13 77.579 165.226z" fill="#c91d6e" stroke-width="none" opacity="1" stroke="none"></path></g><g id="svga-group-head" ><g id="svga-group-ears-left" ><path id="SvgjsPath28303" d="M47.69 82.611c-1.588-2.324-8.025-7.659-11.703-6.839 -4.355 0.971-5.708 4.275-5.603 6.332 0.606 11.758 4.426 11.749 6.71 16.271 1.709 3.383 3.126 4.933 4.172 11.692 0.598 3.866 4.427 6.83 7.217 6.684 3.908-0.205 6.994-3.634 8.291-7.014C59.463 102.718 51.823 88.658 47.69 82.611z" fill="#f3d4cf" stroke="#c5796d" stroke-width="1.5" opacity="1"></path><path id="SvgjsPath28304" d="M43.274 99.484c-0.15-0.542-0.062-1.474 0.024-2.376 0.077-0.821 1.438-3.801 1.348-4.341 -0.344-2.022-1.931-5.809-2.949-7.853 -1.169-2.35-3.604-5.289-5.79-5.943 -0.904-0.271-3.479 0.039-3.781 0.625 -1.131 2.191-0.615 4.313 1.1 9.984 0.85 2.809 3.915 6.069 3.998 6.395 1.067 4.247 5.099 11.032 6.488 12.554 0.256 0.281 0.519 0.442 0.579 0.367 0.059-0.075-0.104-0.359-0.361-0.642 -1.372-1.513-5.367-8.282-6.396-12.38 -1.092-4.347 2.313-11.094 2.93-12.516 0.379 0.627 0.703 1.233 0.954 1.738 0.198 0.397 0.417 0.861 0.645 1.364 -0.367 0.744-4.245 6.226-3.026 10.371 0.451 1.528 2.054 4.491 3.432 6.049 0.483 0.546 0.893 0.702 1.19 1.207 0.341 0.586 0.732 1.251 1.792 1.687 0.215 0.089 0.408 0.118 0.577 0.108 0.293-0.019 0.51-0.157 0.667-0.318 0.029 0.265 0.044 0.604 0.051 0.919 0.007 0.404 0.073 0.735 0.162 0.738s0.168-0.325 0.161-0.729c-0.009-0.497-0.04-1.113-0.132-1.403 -0.273-0.854-1.028-1.791-1.829-2.781C44.319 101.332 43.505 100.323 43.274 99.484zM36.96 93.913c-2.347-6.628-1.518-13.365-1.103-14.318 1.345 0 3.778 2.439 4.397 3.42C39.874 83.854 36.837 89.368 36.96 93.913zM45.559 105.428c-0.961-0.395-1.303-0.979-1.635-1.545 -0.299-0.513-1.018-1-1.346-1.348 -0.191-0.204-0.531-0.75-0.715-0.872 -1.762-7.438 1.345-10.152 1.967-10.722 0.231 0.712 0.411 1.368 0.5 1.896 0.082 0.485-1.28 3.474-1.352 4.231 -0.089 0.939-0.182 1.911-0.012 2.526 0.253 0.917 1.093 1.955 1.904 2.96 0.72 0.892 1.459 1.811 1.732 2.581C46.509 105.299 46.204 105.692 45.559 105.428z" fill="#c5796d" stroke-width="none" opacity="1" stroke="none"></path></g><g id="svga-group-ears-right" ><path id="SvgjsPath28305" d="M152.049 82.611c1.588-2.324 8.025-7.659 11.701-6.839 4.357 0.971 5.709 4.275 5.604 6.332 -0.605 11.758-4.426 11.749-6.709 16.271 -1.711 3.383-3.127 4.933-4.174 11.692 -0.598 3.866-4.428 6.83-7.217 6.684 -3.908-0.205-6.994-3.634-8.291-7.014C140.275 102.718 147.916 88.658 152.049 82.611z" fill="#f3d4cf" stroke="#c5796d" stroke-width="1.5" opacity="1"></path><path id="SvgjsPath28306" d="M154.633 102.307c-0.801 0.99-1.557 1.928-1.83 2.781 -0.092 0.29-0.123 0.906-0.131 1.403 -0.008 0.404 0.072 0.732 0.16 0.729 0.09-0.003 0.154-0.334 0.162-0.738 0.008-0.315 0.021-0.654 0.051-0.919 0.156 0.161 0.373 0.3 0.666 0.318 0.17 0.01 0.361-0.02 0.578-0.108 1.061-0.436 1.449-1.101 1.791-1.687 0.297-0.505 0.709-0.66 1.191-1.207 1.377-1.559 2.98-4.521 3.432-6.049 1.219-4.145-2.66-9.627-3.027-10.371 0.229-0.503 0.447-0.967 0.645-1.364 0.252-0.505 0.576-1.111 0.955-1.738 0.617 1.421 4.021 8.168 2.93 12.516 -1.029 4.098-5.025 10.868-6.396 12.38 -0.256 0.282-0.42 0.566-0.361 0.642 0.061 0.075 0.322-0.086 0.578-0.367 1.391-1.521 5.422-8.307 6.49-12.554 0.082-0.326 3.146-3.586 3.996-6.395 1.715-5.671 2.232-7.793 1.102-9.984 -0.303-0.586-2.877-0.896-3.783-0.625 -2.186 0.655-4.619 3.594-5.789 5.943 -1.018 2.044-2.605 5.831-2.949 7.853 -0.09 0.54 1.271 3.52 1.348 4.341 0.086 0.902 0.176 1.834 0.025 2.376C156.232 100.323 155.42 101.332 154.633 102.307zM159.484 83.016c0.619-0.981 3.053-3.42 4.396-3.42 0.416 0.953 1.244 7.689-1.104 14.318C162.902 89.368 159.863 83.854 159.484 83.016zM153.137 105.137c0.273-0.771 1.012-1.689 1.732-2.581 0.811-1.005 1.65-2.044 1.904-2.96 0.168-0.616 0.076-1.587-0.014-2.526 -0.07-0.758-1.434-3.746-1.352-4.231 0.09-0.528 0.27-1.184 0.5-1.896 0.623 0.569 3.729 3.284 1.967 10.722 -0.184 0.122-0.523 0.668-0.715 0.872 -0.328 0.348-1.047 0.834-1.346 1.348 -0.332 0.565-0.674 1.15-1.635 1.545C153.533 105.692 153.23 105.299 153.137 105.137z" fill="#c5796d" stroke-width="none" opacity="1" stroke="none"></path></g><g id="svga-group-faceshape-wrap" ><g id="svga-group-faceshape-single" ><path id="SvgjsPath28323" d="M100.103 0.867C66.481 0.814 39.286 27.899 39.234 61.374c-0.008 5.316 0.669 10.473 1.953 15.389l0.004 0c0.011 0.053 6.322 32.098 11.785 46.085 4.253 10.89 10.61 37.576 47.125 37.555 36.515 0.021 42.872-26.665 47.125-37.555 5.463-13.987 11.773-46.032 11.785-46.085l0.005 0c1.283-4.916 1.961-10.072 1.952-15.389C160.919 27.899 133.723 0.814 100.103 0.867z" fill="#f3d4cf" stroke-width="none" opacity="1"></path><path id="SvgjsPath28324" d="M150.307 27.3c5.293 9.096 8.347 19.746 8.364 31.14 0.008 5.316-0.645 10.473-1.883 15.389l-0.004 0c-0.012 0.053-5.969 32.098-11.234 46.085 -4.1 10.89-10.353 37.576-45.547 37.555 -35.195 0.021-41.448-26.665-45.547-37.555 -5.266-13.987-11.223-46.032-11.234-46.085l-0.004 0c-1.237-4.916-1.891-10.072-1.882-15.389 0.017-11.394 3.071-22.043 8.362-31.139 -6.647 9.702-10.543 21.43-10.563 34.072 -0.008 5.316 0.669 10.473 1.953 15.389l0.004 0c0.011 0.053 6.322 32.098 11.785 46.085 4.253 10.89 10.61 37.576 47.125 37.555 36.515 0.021 42.873-26.665 47.125-37.555 5.463-13.987 11.773-46.032 11.785-46.085l0.005 0c1.283-4.916 1.961-10.072 1.952-15.389C160.852 48.73 156.954 37.002 150.307 27.3z" fill="#ebc3bd" stroke-width="none" opacity="1"></path><path id="SvgjsPath28325" d="M100.103 0.867C66.481 0.814 39.286 27.899 39.234 61.374c-0.008 5.316 0.669 10.473 1.953 15.389l0.004 0c0.011 0.053 6.322 32.098 11.785 46.085 4.253 10.89 10.61 37.576 47.125 37.555 36.515 0.021 42.872-26.665 47.125-37.555 5.463-13.987 11.773-46.032 11.785-46.085l0.005 0c1.283-4.916 1.961-10.072 1.952-15.389C160.919 27.899 133.723 0.814 100.103 0.867z" fill="none" stroke="#c5796d" stroke-width="1.5" opacity="1"></path></g></g><g id="svga-group-mouth-single" ><path id="SvgjsPath28294" d="M99.867 141.087c-4.159 0-7.258-4.297-7.258-4.297 7.261 3.32 14.915 0 14.915 0S103.516 141.087 99.867 141.087z" fill="url(#SvgjsLinearGradient28295)" opacity="1"></path><path id="SvgjsPath28298" d="M112.127 131.943c0 0.625-7.773 3.456-12.258 3.575 -4.18 0.112-12.333-2.682-12.333-3.575 0-0.892 6.441-1.558 12.729-1.558C106.555 130.386 112.127 131.052 112.127 131.943z" fill="#ffffff" stroke-width="none" opacity="1"></path><path id="SvgjsPath28299" d="M95.441 127.853c0.99-0.131 2.728 0.908 4.824 0.909 1.541 0.002 3.426-1.067 4.612-0.909 2.529 0.341 3.857 1.882 10.491 2.47 0 0-3.22 1.083-4.075 1.15 -2.72 0.216-7.215-0.169-11.287-0.181 -4.556-0.02-8.941 0.43-11.697 0.301 -0.994-0.051-3.941-1.137-3.941-1.137C89.901 130.196 92.547 128.235 95.441 127.853zM84.369 130.818c0 0 4.514 3.538 6.253 4.76 2.007 1.411 5.029 3.623 9.474 3.557 3.563-0.058 6.641-1.816 8.477-2.986 1.978-1.259 6.796-5.463 6.796-5.463 -2.77 0.633-2.77 0.633-4.075 1.149 -2.741 1.084-7.477 2.722-11.173 2.722 -4.563 0-8.936-1.639-11.811-2.603C86.315 131.286 84.369 130.818 84.369 130.818z" fill="#92002a" stroke="#830026" stroke-width="0.75" opacity="1"></path><path id="SvgjsPath28300" d="M115.592 130.572c-0.458 0.663-2.14 0.715-2.888 0.977 -1.098 0.383-2.162 0.856-3.259 1.245 -2.693 0.954-5.51 1.792-8.375 1.98 -5.336 0.351-10.599-1.808-15.596-3.41 -0.424-0.136-0.994-0.175-1.359-0.449 -0.326-0.244-0.015-0.768 0.336-0.701 1.051 0.199 2.092 0.731 3.141 0.994 1.224 0.308 2.583 0.16 3.832 0.113 1.592-0.059 3.184-0.146 4.777-0.207 2.927-0.109 5.842-0.053 8.768 0.059 2.621 0.101 5.366 0.402 7.915-0.332 0.688-0.199 1.379-0.399 2.047-0.656C115.179 130.09 115.94 130.07 115.592 130.572 115.415 130.828 115.632 130.515 115.592 130.572zM108.39 131.773c-3.415 0.013-6.822-0.286-10.24-0.217 -1.874 0.038-3.745 0.139-5.617 0.219 -0.566 0.024-1.625-0.143-2.11 0.204 -0.466 0.334 1.182 0.807 1.325 0.852 3.306 1.039 6.829 1.78 10.304 1.346 1.704-0.214 3.382-0.632 5.023-1.13 0.64-0.195 1.439-0.341 1.987-0.743C109.635 131.883 108.656 131.773 108.39 131.773 107.333 131.777 109.492 131.771 108.39 131.773z" fill="#64001d" stroke-width="none" opacity="1" stroke="none"></path><path id="SvgjsPath28301" d="M99.901 138.136c-4.165 0-7.465-2.404-10.634-4.801 7.714 2.61 14.222 2.572 21.819-0.346C107.874 135.609 104.215 138.095 99.901 138.136zM93.601 130.478c5.567-0.262 11.102 0.228 16.657 0.047 -1.847-0.453-3.623-1.426-5.512-1.681 -1.452-0.142-2.984 0.918-4.481 0.918 -1.633-0.001-3.113-0.918-4.692-0.918 -2.024 0.27-3.923 1.229-5.881 1.771C90.996 130.593 92.299 130.547 93.601 130.478 95.469 130.39 92.18 130.543 93.601 130.478z" fill="#a1103a" stroke-width="none" opacity="1" stroke="none"></path><path id="SvgjsPath28302" d="M95.134 136.031c1.596 0.319 3.265 0.525 4.987 0.525 1.453 0 3.029-0.222 4.598-0.563 -1.384 0.624-2.973 1.132-4.654 1.141C98.283 137.145 96.471 136.67 95.134 136.031z" fill="#b1234c" stroke-width="none" opacity="1" stroke="none"></path></g><g id="svga-group-eyes-left" ><g id="svga-group-eyesback-left"><path id="SvgjsPath28230" d="M76.925 80.872c4.607 0.618 8.048 3.822 11.044 9 0.004 0.006 0.013 0.004 0.018 0.009 0.008 0.032 0.022 0.063 0.029 0.094 0.29 1.188-0.752 2.198-2.068 2.988 -4.747 0.924-9.302 2.162-14.155 1.625 -9.719-1.074-10.042-6.145-10.551-7.458 -0.291-1.299-0.374-2.626-0.397-3.883 1.844 0.032 3.983-1.056 5.781-1.555C68.731 81.108 73.444 80.404 76.925 80.872z" fill="url(#SvgjsRadialGradient28231)" opacity="1"></path></g><g id="svga-group-eyesiriswrapper-left" transform="translate(0 1)"><g id="svga-group-eyesiriscontrol-left" ><g id="svga-group-eyesiris-left" ><path id="SvgjsPath28388" d="M83.5 87c0 4.694-3.806 8.5-8.499 8.5 -4.694 0-8.501-3.806-8.501-8.5l0 0c0-4.694 3.807-8.5 8.501-8.5C79.694 78.499 83.5 82.305 83.5 87L83.5 87z" fill="#3e4442" stroke-width="none" opacity="1" stroke="none"></path><path id="SvgjsPath28389" d="M74.048 78.595c-0.033 0.004-0.066 0.008-0.101 0.012 0.041 0.191 0.081 0.384 0.12 0.575C74.06 78.987 74.055 78.789 74.048 78.595zM74.066 79.18c0.099 2.793 0.262 5.282 0.732 6.183C75.047 84.377 74.625 81.92 74.066 79.18zM74.8 85.365c-0.061 0.236-0.153 0.397-0.294 0.452 -0.142 0.053-0.319-0.008-0.521-0.146 0.058 0.236 0.052 0.422-0.051 0.537 -0.102 0.114-0.285 0.142-0.527 0.11 0.16 0.184 0.242 0.353 0.206 0.5 -0.039 0.148-0.189 0.258-0.415 0.343 0.225 0.088 0.376 0.199 0.411 0.347 0.036 0.148-0.046 0.315-0.205 0.498 0.241-0.029 0.426 0.001 0.525 0.115 0.101 0.114 0.106 0.301 0.05 0.537 0.199-0.137 0.376-0.197 0.518-0.142 0.143 0.053 0.234 0.216 0.291 0.454 0.114-0.215 0.243-0.353 0.396-0.368 0.148-0.02 0.307 0.084 0.466 0.267 0.002-0.244 0.053-0.423 0.181-0.51 0.124-0.086 0.311-0.069 0.537 0.018 -0.11-0.216-0.148-0.398-0.078-0.534 0.071-0.135 0.245-0.207 0.487-0.235 -0.199-0.14-0.321-0.283-0.318-0.436 -0.001-0.153 0.119-0.296 0.321-0.434 -0.241-0.03-0.412-0.103-0.484-0.237 -0.07-0.135-0.031-0.319 0.081-0.535 -0.229 0.085-0.413 0.102-0.538 0.016 -0.126-0.086-0.177-0.267-0.178-0.51 -0.158 0.182-0.316 0.282-0.468 0.262C75.041 85.714 74.911 85.58 74.8 85.365zM75.66 85.471c0.679-0.758 1.446-3.13 2.224-5.813C76.674 82.174 75.662 84.453 75.66 85.471zM77.883 79.657c0.085-0.172 0.172-0.348 0.253-0.524 -0.03-0.011-0.06-0.024-0.09-0.037C77.992 79.284 77.938 79.472 77.883 79.657zM76.377 85.965c0.953-0.357 2.736-2.101 4.671-4.115C78.808 83.517 76.851 85.065 76.377 85.965zM81.048 81.851c0.142-0.106 0.287-0.213 0.433-0.318 -0.021-0.025-0.043-0.047-0.06-0.07C81.297 81.59 81.174 81.722 81.048 81.851zM76.777 86.738c1.01 0.125 3.399-0.591 6.052-1.475C80.068 85.698 77.617 86.159 76.777 86.738zM82.829 85.263c0.156-0.022 0.318-0.048 0.478-0.073 -0.007-0.026-0.013-0.054-0.02-0.081C83.135 85.16 82.979 85.212 82.829 85.263zM76.775 87.606c0.836 0.583 3.284 1.057 6.038 1.505C80.171 88.214 77.786 87.484 76.775 87.606zM82.813 89.111c0.135 0.047 0.271 0.095 0.404 0.138 0.007-0.024 0.013-0.047 0.018-0.071C83.098 89.158 82.954 89.135 82.813 89.111zM76.367 88.375c0.471 0.902 2.42 2.462 4.649 4.142C79.092 90.492 77.32 88.737 76.367 88.375zM81.018 92.514c0.083 0.087 0.17 0.179 0.253 0.268 0.014-0.017 0.027-0.031 0.043-0.046C81.215 92.662 81.113 92.587 81.018 92.514zM75.652 88.867c-0.004 1.019 0.995 3.302 2.191 5.827C77.079 92.006 76.327 89.628 75.652 88.867zM77.844 94.694c0.03 0.106 0.062 0.215 0.09 0.324 0.021-0.008 0.036-0.015 0.055-0.02C77.941 94.896 77.892 94.793 77.844 94.694zM74.788 88.968c-0.476 0.902-0.653 3.386-0.768 6.178C74.594 92.413 75.031 89.958 74.788 88.968zM74.021 95.146c-0.023 0.106-0.044 0.214-0.066 0.323 0.02 0.004 0.035 0.005 0.055 0.007C74.013 95.368 74.018 95.254 74.021 95.146zM73.979 88.657c-0.844 0.576-2.154 2.697-3.553 5.114C72.204 91.617 73.733 89.645 73.979 88.657zM70.427 93.771c-0.074 0.09-0.152 0.185-0.229 0.274 0.018 0.012 0.034 0.02 0.053 0.034C70.309 93.976 70.369 93.873 70.427 93.771zM73.405 88.006c-1.015 0.119-3.16 1.385-5.522 2.875C70.46 89.801 72.726 88.768 73.405 88.006zM67.883 90.884c-0.122 0.051-0.247 0.102-0.372 0.156 0.009 0.019 0.021 0.038 0.033 0.057C67.658 91.027 67.771 90.954 67.883 90.884zM73.198 87.161c-0.951-0.365-3.441-0.238-6.227-0.016C69.755 87.383 72.244 87.521 73.198 87.161zM66.972 87.145c-0.151-0.014-0.308-0.028-0.457-0.041 -0.001 0.027-0.003 0.053-0.001 0.08C66.669 87.169 66.822 87.156 66.972 87.145zM73.407 86.318c-0.67-0.763-2.932-1.809-5.499-2.905C70.259 84.915 72.397 86.196 73.407 86.318zM67.908 83.413c-0.147-0.095-0.297-0.189-0.446-0.285 -0.013 0.026-0.026 0.053-0.041 0.078C67.585 83.276 67.75 83.344 67.908 83.413zM73.985 85.67c-0.239-0.989-1.758-2.967-3.521-5.132C71.849 82.963 73.147 85.09 73.985 85.67zM70.465 80.538c-0.095-0.163-0.188-0.329-0.281-0.494 -0.026 0.018-0.055 0.037-0.079 0.054C70.224 80.245 70.348 80.393 70.465 80.538z" fill="url(#SvgjsRadialGradient28390)" opacity="1"></path><path id="SvgjsPath28393" d="M76.255 78.622c-0.034-0.004-0.066-0.01-0.1-0.014 -0.011 0.196-0.022 0.393-0.034 0.586C76.164 79.004 76.211 78.812 76.255 78.622zM76.12 79.193c-0.627 2.724-1.114 5.17-0.892 6.162C75.724 84.467 75.95 81.984 76.12 79.193zM75.229 85.356c-0.119 0.212-0.25 0.344-0.401 0.36 -0.15 0.014-0.306-0.091-0.464-0.276 -0.006 0.243-0.06 0.421-0.188 0.505 -0.128 0.083-0.313 0.063-0.539-0.03 0.107 0.219 0.143 0.403 0.069 0.536 -0.075 0.133-0.249 0.201-0.489 0.224 0.194 0.144 0.312 0.289 0.308 0.441 -0.003 0.152-0.126 0.292-0.327 0.428 0.24 0.034 0.41 0.111 0.478 0.247 0.067 0.136 0.025 0.318-0.091 0.532 0.229-0.081 0.414-0.093 0.537-0.003 0.123 0.088 0.17 0.27 0.164 0.514 0.166-0.177 0.325-0.278 0.478-0.253 0.148 0.02 0.274 0.16 0.382 0.379 0.064-0.236 0.16-0.396 0.306-0.447 0.143-0.051 0.318 0.014 0.515 0.157 -0.051-0.237-0.041-0.423 0.063-0.536s0.29-0.136 0.532-0.102c-0.157-0.187-0.238-0.356-0.195-0.504 0.039-0.148 0.192-0.255 0.423-0.336 -0.226-0.091-0.372-0.206-0.407-0.354 -0.032-0.149 0.053-0.316 0.218-0.495 -0.243 0.023-0.427-0.009-0.524-0.125 -0.099-0.115-0.102-0.303-0.039-0.538 -0.201 0.134-0.38 0.19-0.521 0.132C75.37 85.756 75.281 85.593 75.229 85.356zM76.033 85.683c0.852-0.558 2.206-2.65 3.652-5.04C77.865 82.76 76.298 84.699 76.033 85.683zM79.685 80.641c0.126-0.145 0.255-0.292 0.38-0.44 -0.027-0.019-0.052-0.04-0.078-0.06C79.886 80.31 79.785 80.477 79.685 80.641zM76.597 86.345c1.013-0.099 3.187-1.322 5.577-2.767C79.578 84.609 77.287 85.598 76.597 86.345zM82.173 83.579c0.165-0.065 0.333-0.131 0.501-0.195 -0.014-0.029-0.029-0.056-0.04-0.083C82.481 83.392 82.328 83.487 82.173 83.579zM76.783 87.194c0.943 0.382 3.437 0.309 6.227 0.142C80.231 87.042 77.745 86.853 76.783 87.194zM83.01 87.336c0.158 0.019 0.32 0.036 0.48 0.053 0.001-0.027 0.002-0.055 0.003-0.083C83.332 87.316 83.168 87.326 83.01 87.336zM76.558 88.033c0.655 0.78 2.898 1.871 5.442 3.017C79.679 89.499 77.565 88.177 76.558 88.033zM82 91.049c0.117 0.08 0.236 0.161 0.354 0.238 0.013-0.021 0.024-0.042 0.035-0.063C82.262 91.168 82.129 91.109 82 91.049zM75.964 88.67c0.221 0.993 1.699 3.004 3.419 5.205C78.048 91.419 76.791 89.266 75.964 88.67zM79.384 93.872c0.059 0.106 0.117 0.217 0.176 0.325 0.018-0.013 0.034-0.023 0.053-0.034C79.536 94.065 79.458 93.967 79.384 93.872zM75.146 88.96c-0.267 0.982 0.107 3.447 0.608 6.195C75.711 92.361 75.601 89.87 75.146 88.96zM75.754 95.155c0.002 0.11 0.004 0.224 0.004 0.337 0.021-0.003 0.038-0.005 0.058-0.005C75.796 95.376 75.775 95.264 75.754 95.155zM74.285 88.834c-0.693 0.748-1.508 3.102-2.341 5.769C73.205 92.11 74.265 89.853 74.285 88.834zM71.944 94.603c-0.05 0.096-0.099 0.195-0.147 0.295 0.017 0.008 0.032 0.013 0.051 0.021C71.879 94.815 71.913 94.707 71.944 94.603zM73.584 88.324c-0.964 0.338-2.779 2.048-4.756 4.021C71.104 90.724 73.091 89.215 73.584 88.324zM68.828 92.345c-0.095 0.067-0.194 0.138-0.29 0.206 0.014 0.016 0.027 0.028 0.041 0.045C68.661 92.511 68.746 92.428 68.828 92.345zM73.197 87.546c-1.01-0.148-3.409 0.521-6.078 1.349C69.889 88.518 72.345 88.106 73.197 87.546zM67.119 88.897c-0.131 0.018-0.265 0.034-0.4 0.054 0.005 0.021 0.011 0.042 0.018 0.063C66.865 88.977 66.993 88.936 67.119 88.897zM73.217 86.677c-0.824-0.599-3.263-1.121-6.01-1.627C69.833 86 72.202 86.777 73.217 86.677zM67.207 85.05c-0.143-0.052-0.29-0.106-0.432-0.158 -0.008 0.026-0.016 0.051-0.021 0.077C66.907 84.995 67.06 85.022 67.207 85.05zM73.637 85.917c-0.45-0.911-2.363-2.506-4.561-4.23C70.959 83.747 72.693 85.538 73.637 85.917zM69.076 81.688c-0.118-0.13-0.236-0.26-0.355-0.391 -0.021 0.022-0.041 0.044-0.061 0.065C68.8 81.471 68.941 81.58 69.076 81.688zM74.363 85.44c0.024-1.017-0.93-3.321-2.073-5.868C72.999 82.273 73.704 84.663 74.363 85.44zM72.29 79.572c-0.049-0.182-0.096-0.366-0.144-0.55 -0.029 0.01-0.062 0.021-0.09 0.032C72.134 79.227 72.214 79.401 72.29 79.572z" fill="url(#SvgjsRadialGradient28394)" opacity="1"></path><path id="SvgjsPath28397" d="M78.334 87c0 1.842-1.492 3.333-3.333 3.333S71.666 88.841 71.666 87c0-1.841 1.494-3.334 3.335-3.334C76.844 83.666 78.334 85.159 78.334 87z" fill="#3e4442" stroke-width="none" opacity="1" stroke="none"></path><path id="SvgjsPath28398" d="M78.334 87c0 1.842-1.492 3.333-3.333 3.333S71.666 88.841 71.666 87c0-1.841 1.494-3.334 3.335-3.334C76.844 83.666 78.334 85.159 78.334 87z" fill="#000000" stroke-width="none" opacity="0.9"></path><path id="SvgjsPath28399" d="M70.35 90.893c0.636-0.427 1.5-0.255 1.927 0.38 0.427 0.637 0.258 1.5-0.379 1.927 -0.638 0.429-1.5 0.258-1.927-0.378C69.544 92.185 69.713 91.32 70.35 90.893L70.35 90.893z" fill="url(#SvgjsLinearGradient28400)" opacity="0.5"></path><path id="SvgjsPath28403" d="M77.635 86.536c-0.356 0.53-1.373 0.468-2.275-0.136 -0.903-0.605-1.346-1.526-0.991-2.055l0.001-0.001c0.354-0.53 1.372-0.469 2.274 0.137 0.903 0.604 1.346 1.524 0.992 2.054C77.635 86.536 77.635 86.536 77.635 86.536z" fill="url(#SvgjsLinearGradient28404)" opacity="0.5"></path><path id="SvgjsPath28407" d="M81.682 85.121c-0.806 1.237-2.884 1.31-4.641 0.166 -1.756-1.145-2.527-3.075-1.722-4.311 0.806-1.235 2.884-1.31 4.641-0.166C81.715 81.956 82.485 83.887 81.682 85.121L81.682 85.121z" fill="url(#SvgjsLinearGradient28408)" opacity="0.75"></path></g></g></g><g id="svga-group-eyesfront-left"><path id="SvgjsPath28255" d="M55.5 88c0 13.808 8.283 24.999 18.5 24.999S92.5 101.808 92.5 88c0-13.809-8.283-25.001-18.5-25.001S55.5 74.191 55.5 88zM61.241 87.132c-0.291-1.299-0.374-2.626-0.397-3.883 1.844 0.032 3.983-1.056 5.781-1.555 2.106-0.586 6.819-1.29 10.3-0.822 4.607 0.618 8.048 3.822 11.044 9 0.004 0.006 0.013 0.004 0.018 0.009 0.008 0.032 0.022 0.063 0.029 0.094 0.29 1.188-0.752 2.198-2.068 2.988 -4.747 0.924-9.302 2.162-14.155 1.625C62.073 93.516 61.75 88.445 61.241 87.132z" fill="#f3d4cf" stroke-width="none" opacity="1" stroke="none"></path><path id="SvgjsPath28256" d="M75.005 100.952c9.299 1.281 17.73-4.324 18.83-12.528 1.101-8.205-5.541-15.895-14.842-17.18 -9.301-1.28-17.729 4.326-18.829 12.53C59.064 91.977 65.704 99.664 75.005 100.952zM60.844 83.249c1.844 0.032 3.983-1.056 5.781-1.555 2.106-0.586 6.819-1.29 10.3-0.822 4.607 0.618 8.048 3.822 11.044 9 0.004 0.006 0.013 0.004 0.018 0.009 0.008 0.032 0.022 0.063 0.029 0.094 0.29 1.188-0.752 2.198-2.068 2.988 -4.747 0.924-9.302 2.162-14.155 1.625 -9.719-1.074-10.042-6.145-10.551-7.458C60.95 85.833 60.867 84.506 60.844 83.249z" fill="url(#SvgjsRadialGradient28257)" opacity="1"></path><path id="SvgjsPath28261" d="M61.241 87.132c-0.291-1.299-0.374-2.626-0.397-3.883 1.844 0.032 3.983-1.056 5.781-1.555 2.106-0.586 6.819-1.29 10.3-0.822 4.607 0.618 8.048 3.822 11.044 9 0.004 0.006 0.013 0.004 0.018 0.009 0.008 0.032 0.022 0.063 0.029 0.094 0.29 1.188-0.752 2.198-2.068 2.988 -4.747 0.924-9.302 2.162-14.155 1.625C62.073 93.516 61.75 88.445 61.241 87.132z" fill="url(#SvgjsRadialGradient28262)" opacity="1"></path><path id="SvgjsPath28265" d="M76.428 75.952c3.311 0.503 6.572 2.172 9.612 4.298 0.65 0.455 1.396 0.972 2.57 1.622 -0.834-0.189-1.614-0.667-2.343-1.106 0.76 0.798 1.475 1.76 2.063 2.694 -2.63-3.653-7.485-6.286-11.574-7.082 -3.927-0.765-10.991 0.142-16.17 3.104C65.306 76.058 72.317 75.327 76.428 75.952z" fill="#c5796d" stroke-width="none" opacity="1" stroke="none"></path><path id="SvgjsPath28266" d="M88.054 89.86c-0.034 0.003-0.066-0.014-0.084-0.043 -2.996-5.044-6.437-8.167-11.045-8.769 -3.479-0.456-8.192 0.23-10.3 0.801 -1.867 0.505-4.106 1.641-5.996 1.518 -1.754-0.115-3.748-1.511-4.801-2.513 1.128 0.843 4.185 1.027 5.099 0.811 -0.282-0.073-1.853-1.056-2.157-1.348 0.741 0.422 3.617 0.862 4.542 0.628 -0.265-0.14-1.585-1.042-1.891-1.398 0.14 0.122 3.378 0.74 5.034 0.188 9.938-3.31 18.034-0.452 21.862 9.95 0.014 0.035 0.009 0.074-0.011 0.105 -0.021 0.031-0.054 0.051-0.091 0.055L88.054 89.86zM61.004 86.846c-0.644 2.483 1.093 7.881 10.4 8.505 6.612 0.442 15.696-2.737 14.568-2.526 -4.756 0.9-9.318 2.112-14.181 1.589C60.769 93.227 61.832 87.027 61.004 86.846z" fill="#0f190c" stroke-width="none" opacity="1" stroke="none"></path></g></g><g id="svga-group-eyes-right" ><g id="svga-group-eyesback-right"><path id="SvgjsPath28238" d="M123.075 80.872c-4.607 0.618-8.048 3.822-11.044 9 -0.004 0.006-0.013 0.004-0.018 0.009 -0.008 0.032-0.022 0.063-0.029 0.094 -0.29 1.188 0.752 2.198 2.068 2.988 4.747 0.924 9.302 2.162 14.155 1.625 9.719-1.074 10.042-6.145 10.551-7.458 0.291-1.299 0.374-2.626 0.397-3.883 -1.844 0.032-3.983-1.056-5.781-1.555C131.269 81.108 126.556 80.404 123.075 80.872z" fill="url(#SvgjsRadialGradient28239)" opacity="1"></path></g><g id="svga-group-eyesiriswrapper-right" transform="translate(0 1)"><g id="svga-group-eyesiriscontrol-right" ><g id="svga-group-eyesiris-right" ><path id="SvgjsPath28411" d="M133.5 87c0 4.694-3.806 8.5-8.499 8.5 -4.694 0-8.501-3.806-8.501-8.5l0 0c0-4.694 3.807-8.5 8.501-8.5C129.694 78.499 133.5 82.305 133.5 87L133.5 87z" fill="#3e4442" stroke-width="none" opacity="1" stroke="none"></path><path id="SvgjsPath28412" d="M124.048 78.595c-0.033 0.004-0.066 0.008-0.101 0.012 0.041 0.191 0.081 0.384 0.12 0.575C124.06 78.987 124.055 78.789 124.048 78.595zM124.066 79.18c0.099 2.793 0.262 5.282 0.732 6.183C125.047 84.377 124.625 81.92 124.066 79.18zM124.8 85.365c-0.061 0.236-0.153 0.397-0.294 0.452 -0.142 0.053-0.319-0.008-0.521-0.146 0.058 0.236 0.052 0.422-0.051 0.537 -0.102 0.114-0.285 0.142-0.527 0.11 0.16 0.184 0.242 0.353 0.206 0.5 -0.039 0.148-0.189 0.258-0.415 0.343 0.225 0.088 0.376 0.199 0.411 0.347 0.036 0.148-0.046 0.315-0.205 0.498 0.241-0.029 0.426 0.001 0.525 0.115 0.101 0.114 0.106 0.301 0.05 0.537 0.199-0.137 0.376-0.197 0.518-0.142 0.143 0.053 0.234 0.216 0.291 0.454 0.114-0.215 0.243-0.353 0.396-0.368 0.148-0.02 0.307 0.084 0.466 0.267 0.002-0.244 0.053-0.423 0.181-0.51 0.124-0.086 0.311-0.069 0.537 0.018 -0.11-0.216-0.148-0.398-0.078-0.534 0.071-0.135 0.245-0.207 0.487-0.235 -0.199-0.14-0.321-0.283-0.318-0.436 -0.001-0.153 0.119-0.296 0.321-0.434 -0.241-0.03-0.412-0.103-0.484-0.237 -0.07-0.135-0.031-0.319 0.081-0.535 -0.229 0.085-0.413 0.102-0.538 0.016 -0.126-0.086-0.177-0.267-0.178-0.51 -0.158 0.182-0.316 0.282-0.468 0.262C125.041 85.714 124.911 85.58 124.8 85.365zM125.66 85.471c0.679-0.758 1.446-3.13 2.224-5.813C126.674 82.174 125.662 84.453 125.66 85.471zM127.883 79.657c0.085-0.172 0.172-0.348 0.253-0.524 -0.03-0.011-0.06-0.024-0.09-0.037C127.992 79.284 127.938 79.472 127.883 79.657zM126.377 85.965c0.953-0.357 2.736-2.101 4.671-4.115C128.808 83.517 126.851 85.065 126.377 85.965zM131.048 81.851c0.142-0.106 0.287-0.213 0.433-0.318 -0.021-0.025-0.043-0.047-0.06-0.07C131.297 81.59 131.174 81.722 131.048 81.851zM126.777 86.738c1.01 0.125 3.399-0.591 6.052-1.475C130.068 85.698 127.617 86.159 126.777 86.738zM132.829 85.263c0.156-0.022 0.318-0.048 0.478-0.073 -0.007-0.026-0.013-0.054-0.02-0.081C133.135 85.16 132.979 85.212 132.829 85.263zM126.775 87.606c0.836 0.583 3.284 1.057 6.038 1.505C130.171 88.214 127.786 87.484 126.775 87.606zM132.813 89.111c0.135 0.047 0.271 0.095 0.404 0.138 0.007-0.024 0.013-0.047 0.018-0.071C133.098 89.158 132.954 89.135 132.813 89.111zM126.367 88.375c0.471 0.902 2.42 2.462 4.649 4.142C129.092 90.492 127.32 88.737 126.367 88.375zM131.018 92.514c0.083 0.087 0.17 0.179 0.253 0.268 0.014-0.017 0.027-0.031 0.043-0.046C131.215 92.662 131.113 92.587 131.018 92.514zM125.652 88.867c-0.004 1.019 0.995 3.302 2.191 5.827C127.079 92.006 126.327 89.628 125.652 88.867zM127.844 94.694c0.03 0.106 0.062 0.215 0.09 0.324 0.021-0.008 0.036-0.015 0.055-0.02C127.941 94.896 127.892 94.793 127.844 94.694zM124.788 88.968c-0.476 0.902-0.653 3.386-0.768 6.178C124.594 92.413 125.031 89.958 124.788 88.968zM124.021 95.146c-0.023 0.106-0.044 0.214-0.066 0.323 0.02 0.004 0.035 0.005 0.055 0.007C124.013 95.368 124.018 95.254 124.021 95.146zM123.979 88.657c-0.844 0.576-2.154 2.697-3.553 5.114C122.204 91.617 123.733 89.645 123.979 88.657zM120.427 93.771c-0.074 0.09-0.152 0.185-0.229 0.274 0.018 0.012 0.034 0.02 0.053 0.034C120.309 93.976 120.369 93.873 120.427 93.771zM123.405 88.006c-1.015 0.119-3.16 1.385-5.522 2.875C120.46 89.801 122.726 88.768 123.405 88.006zM117.883 90.884c-0.122 0.051-0.247 0.102-0.372 0.156 0.009 0.019 0.021 0.038 0.033 0.057C117.658 91.027 117.771 90.954 117.883 90.884zM123.198 87.161c-0.951-0.365-3.441-0.238-6.227-0.016C119.755 87.383 122.244 87.521 123.198 87.161zM116.972 87.145c-0.151-0.014-0.308-0.028-0.457-0.041 -0.001 0.027-0.003 0.053-0.001 0.08C116.669 87.169 116.822 87.156 116.972 87.145zM123.407 86.318c-0.67-0.763-2.932-1.809-5.499-2.905C120.259 84.915 122.397 86.196 123.407 86.318zM117.908 83.413c-0.147-0.095-0.297-0.189-0.446-0.285 -0.013 0.026-0.026 0.053-0.041 0.078C117.585 83.276 117.75 83.344 117.908 83.413zM123.985 85.67c-0.239-0.989-1.758-2.967-3.521-5.132C121.849 82.963 123.147 85.09 123.985 85.67zM120.465 80.538c-0.095-0.163-0.188-0.329-0.281-0.494 -0.026 0.018-0.055 0.037-0.079 0.054C120.224 80.245 120.348 80.393 120.465 80.538z" fill="url(#SvgjsRadialGradient28413)" opacity="1"></path><path id="SvgjsPath28416" d="M126.255 78.622c-0.034-0.004-0.066-0.01-0.1-0.014 -0.011 0.196-0.022 0.393-0.034 0.586C126.164 79.004 126.211 78.812 126.255 78.622zM126.12 79.193c-0.627 2.724-1.114 5.17-0.892 6.162C125.724 84.467 125.95 81.984 126.12 79.193zM125.229 85.356c-0.119 0.212-0.25 0.344-0.401 0.36 -0.15 0.014-0.306-0.091-0.464-0.276 -0.006 0.243-0.06 0.421-0.188 0.505 -0.128 0.083-0.313 0.063-0.539-0.03 0.107 0.219 0.143 0.403 0.069 0.536 -0.075 0.133-0.249 0.201-0.489 0.224 0.194 0.144 0.312 0.289 0.308 0.441 -0.003 0.152-0.126 0.292-0.327 0.428 0.24 0.034 0.41 0.111 0.478 0.247 0.067 0.136 0.025 0.318-0.091 0.532 0.229-0.081 0.414-0.093 0.537-0.003 0.123 0.088 0.17 0.27 0.164 0.514 0.166-0.177 0.325-0.278 0.478-0.253 0.148 0.02 0.274 0.16 0.382 0.379 0.064-0.236 0.16-0.396 0.306-0.447 0.143-0.051 0.318 0.014 0.515 0.157 -0.051-0.237-0.041-0.423 0.063-0.536s0.29-0.136 0.532-0.102c-0.157-0.187-0.238-0.356-0.195-0.504 0.039-0.148 0.192-0.255 0.423-0.336 -0.226-0.091-0.372-0.206-0.407-0.354 -0.032-0.149 0.053-0.316 0.218-0.495 -0.243 0.023-0.427-0.009-0.524-0.125 -0.099-0.115-0.102-0.303-0.039-0.538 -0.201 0.134-0.38 0.19-0.521 0.132C125.37 85.756 125.281 85.593 125.229 85.356zM126.033 85.683c0.852-0.558 2.206-2.65 3.652-5.04C127.865 82.76 126.298 84.699 126.033 85.683zM129.685 80.641c0.126-0.145 0.255-0.292 0.38-0.44 -0.027-0.019-0.052-0.04-0.078-0.06C129.886 80.31 129.785 80.477 129.685 80.641zM126.597 86.345c1.013-0.099 3.187-1.322 5.577-2.767C129.578 84.609 127.287 85.598 126.597 86.345zM132.173 83.579c0.165-0.065 0.333-0.131 0.501-0.195 -0.014-0.029-0.029-0.056-0.04-0.083C132.481 83.392 132.328 83.487 132.173 83.579zM126.783 87.194c0.943 0.382 3.437 0.309 6.227 0.142C130.231 87.042 127.745 86.853 126.783 87.194zM133.01 87.336c0.158 0.019 0.32 0.036 0.48 0.053 0.001-0.027 0.002-0.055 0.003-0.083C133.332 87.316 133.168 87.326 133.01 87.336zM126.558 88.033c0.655 0.78 2.898 1.871 5.442 3.017C129.679 89.499 127.565 88.177 126.558 88.033zM132 91.049c0.117 0.08 0.236 0.161 0.354 0.238 0.013-0.021 0.024-0.042 0.035-0.063C132.262 91.168 132.129 91.109 132 91.049zM125.964 88.67c0.221 0.993 1.699 3.004 3.419 5.205C128.048 91.419 126.791 89.266 125.964 88.67zM129.384 93.872c0.059 0.106 0.117 0.217 0.176 0.325 0.018-0.013 0.034-0.023 0.053-0.034C129.536 94.065 129.458 93.967 129.384 93.872zM125.146 88.96c-0.267 0.982 0.107 3.447 0.608 6.195C125.711 92.361 125.601 89.87 125.146 88.96zM125.754 95.155c0.002 0.11 0.004 0.224 0.004 0.337 0.021-0.003 0.038-0.005 0.058-0.005C125.796 95.376 125.775 95.264 125.754 95.155zM124.285 88.834c-0.693 0.748-1.508 3.102-2.341 5.769C123.205 92.11 124.265 89.853 124.285 88.834zM121.944 94.603c-0.05 0.096-0.099 0.195-0.147 0.295 0.017 0.008 0.032 0.013 0.051 0.021C121.879 94.815 121.913 94.707 121.944 94.603zM123.584 88.324c-0.964 0.338-2.779 2.048-4.756 4.021C121.104 90.724 123.091 89.215 123.584 88.324zM118.828 92.345c-0.095 0.067-0.194 0.138-0.29 0.206 0.014 0.016 0.027 0.028 0.041 0.045C118.661 92.511 118.746 92.428 118.828 92.345zM123.197 87.546c-1.01-0.148-3.409 0.521-6.078 1.349C119.889 88.518 122.345 88.106 123.197 87.546zM117.119 88.897c-0.131 0.018-0.265 0.034-0.4 0.054 0.005 0.021 0.011 0.042 0.018 0.063C116.865 88.977 116.993 88.936 117.119 88.897zM123.217 86.677c-0.824-0.599-3.263-1.121-6.01-1.627C119.833 86 122.202 86.777 123.217 86.677zM117.207 85.05c-0.143-0.052-0.29-0.106-0.432-0.158 -0.008 0.026-0.016 0.051-0.021 0.077C116.907 84.995 117.06 85.022 117.207 85.05zM123.637 85.917c-0.45-0.911-2.363-2.506-4.561-4.23C120.959 83.747 122.693 85.538 123.637 85.917zM119.076 81.688c-0.118-0.13-0.236-0.26-0.355-0.391 -0.021 0.022-0.041 0.044-0.061 0.065C118.8 81.471 118.941 81.58 119.076 81.688zM124.363 85.44c0.024-1.017-0.93-3.321-2.073-5.868C122.999 82.273 123.704 84.663 124.363 85.44zM122.29 79.572c-0.049-0.182-0.096-0.366-0.144-0.55 -0.029 0.01-0.062 0.021-0.09 0.032C122.134 79.227 122.214 79.401 122.29 79.572z" fill="url(#SvgjsRadialGradient28417)" opacity="1"></path><path id="SvgjsPath28420" d="M128.334 87c0 1.842-1.492 3.333-3.333 3.333s-3.335-1.492-3.335-3.333c0-1.841 1.494-3.334 3.335-3.334C126.844 83.666 128.334 85.159 128.334 87z" fill="#3e4442" stroke-width="none" opacity="1" stroke="none"></path><path id="SvgjsPath28421" d="M128.334 87c0 1.842-1.492 3.333-3.333 3.333s-3.335-1.492-3.335-3.333c0-1.841 1.494-3.334 3.335-3.334C126.844 83.666 128.334 85.159 128.334 87z" fill="#000000" stroke-width="none" opacity="0.9"></path><path id="SvgjsPath28422" d="M120.35 90.893c0.636-0.427 1.5-0.255 1.927 0.38 0.427 0.637 0.258 1.5-0.379 1.927 -0.638 0.429-1.5 0.258-1.927-0.378C119.544 92.185 119.713 91.32 120.35 90.893L120.35 90.893z" fill="url(#SvgjsLinearGradient28423)" opacity="0.5"></path><path id="SvgjsPath28426" d="M127.635 86.536c-0.356 0.53-1.373 0.468-2.275-0.136 -0.903-0.605-1.346-1.526-0.991-2.055l0.001-0.001c0.354-0.53 1.372-0.469 2.274 0.137 0.903 0.604 1.346 1.524 0.992 2.054C127.635 86.536 127.635 86.536 127.635 86.536z" fill="url(#SvgjsLinearGradient28427)" opacity="0.5"></path><path id="SvgjsPath28430" d="M131.682 85.121c-0.806 1.237-2.884 1.31-4.641 0.166 -1.756-1.145-2.527-3.075-1.722-4.311 0.806-1.235 2.884-1.31 4.641-0.166C131.715 81.956 132.485 83.887 131.682 85.121L131.682 85.121z" fill="url(#SvgjsLinearGradient28431)" opacity="0.75"></path></g></g></g><g id="svga-group-eyesfront-right"><path id="SvgjsPath28276" d="M126 62.999c-10.217 0-18.5 11.193-18.5 25.001 0 13.808 8.283 24.999 18.5 24.999S144.5 101.808 144.5 88C144.5 74.191 136.217 62.999 126 62.999zM128.208 94.589c-4.854 0.537-9.408-0.702-14.155-1.625 -1.316-0.791-2.358-1.8-2.068-2.988 0.007-0.032 0.021-0.063 0.029-0.094 0.005-0.005 0.014-0.003 0.018-0.009 2.996-5.178 6.437-8.382 11.044-9 3.48-0.468 8.193 0.236 10.3 0.822 1.798 0.499 3.938 1.587 5.781 1.555 -0.023 1.257-0.106 2.583-0.397 3.883C138.25 88.445 137.927 93.516 128.208 94.589z" fill="#f3d4cf" stroke-width="none" opacity="1" stroke="none"></path><path id="SvgjsPath28277" d="M139.836 83.774c-1.101-8.205-9.528-13.811-18.829-12.53 -9.301 1.285-15.942 8.976-14.842 17.18 1.1 8.204 9.531 13.809 18.83 12.528C134.296 99.664 140.936 91.977 139.836 83.774zM138.759 87.132c-0.509 1.313-0.832 6.384-10.551 7.458 -4.854 0.537-9.408-0.702-14.155-1.625 -1.316-0.791-2.358-1.8-2.068-2.988 0.007-0.032 0.021-0.063 0.029-0.094 0.005-0.005 0.014-0.003 0.018-0.009 2.996-5.178 6.437-8.382 11.044-9 3.48-0.468 8.193 0.236 10.3 0.822 1.798 0.499 3.938 1.587 5.781 1.555C139.133 84.506 139.05 85.833 138.759 87.132z" fill="url(#SvgjsRadialGradient28278)" opacity="1"></path><path id="SvgjsPath28282" d="M138.759 87.132c0.291-1.299 0.374-2.626 0.397-3.883 -1.844 0.032-3.983-1.056-5.781-1.555 -2.106-0.586-6.819-1.29-10.3-0.822 -4.607 0.618-8.048 3.822-11.044 9 -0.004 0.006-0.013 0.004-0.018 0.009 -0.008 0.032-0.022 0.063-0.029 0.094 -0.29 1.188 0.752 2.198 2.068 2.988 4.747 0.924 9.302 2.162 14.155 1.625C137.927 93.516 138.25 88.445 138.759 87.132z" fill="url(#SvgjsRadialGradient28283)" opacity="1"></path><path id="SvgjsPath28286" d="M123.572 75.952c-3.311 0.503-6.572 2.172-9.612 4.298 -0.65 0.455-1.396 0.972-2.57 1.622 0.834-0.189 1.614-0.667 2.343-1.106 -0.76 0.798-1.475 1.76-2.063 2.694 2.63-3.653 7.485-6.286 11.574-7.082 3.927-0.765 10.991 0.142 16.17 3.104C134.694 76.058 127.683 75.327 123.572 75.952z" fill="#c5796d" stroke-width="none" opacity="1" stroke="none"></path><path id="SvgjsPath28287" d="M111.784 89.846c-0.037-0.003-0.07-0.024-0.091-0.055 -0.02-0.031-0.024-0.07-0.011-0.105 3.828-10.402 11.925-13.26 21.862-9.95 1.656 0.552 4.895-0.067 5.034-0.188 -0.306 0.355-1.626 1.258-1.891 1.398 0.925 0.234 3.801-0.206 4.542-0.628 -0.305 0.292-1.875 1.275-2.157 1.348 0.914 0.216 3.971 0.032 5.099-0.811 -1.053 1.002-3.047 2.398-4.801 2.513 -1.89 0.124-4.129-1.012-5.996-1.518 -2.107-0.571-6.82-1.256-10.3-0.801 -4.608 0.602-8.049 3.725-11.045 8.769 -0.018 0.029-0.05 0.046-0.084 0.043L111.784 89.846zM128.208 94.413c-4.862 0.523-9.425-0.688-14.181-1.589 -1.128-0.211 7.956 2.969 14.568 2.526 9.308-0.624 11.044-6.021 10.4-8.505C138.168 87.027 139.231 93.227 128.208 94.413z" fill="#0f190c" stroke-width="none" opacity="1" stroke="none"></path></g></g><g id="svga-group-facehighlight-single" ><path id="SvgjsPath28036" d="M140.204 113.007c0.035 22.275-17.995 40.365-40.273 40.396 -22.274 0.036-40.361-17.993-40.396-40.272C59.501 90.857 77.53 72.77 99.808 72.735 122.083 72.701 140.171 90.73 140.204 113.007z" fill="url(#SvgjsRadialGradient28037)" opacity="1"></path><path id="SvgjsPath28040" d="M135,55.999c0,19.329-15.671,35-35,35c-19.329,0-35-15.671-35-35s15.671-35,35-35C119.329,20.999,135,36.67,135,55.999z" fill="url(#SvgjsRadialGradient28041)" opacity="1"></path></g><g id="svga-group-eyebrows-left" ><path id="SvgjsPath28343" d="M56.113 70.739c32.178-9.407 39.48 9.836 32.802 3.849C81.977 68.368 65.958 68.92 56.113 70.739z" fill="#73625b" stroke-width="none" opacity="1"></path></g><g id="svga-group-eyebrows-right" ><path id="SvgjsPath28344" d="M143.889 70.731c-9.304-1.701-22.773-2.38-30.946 2.53 -1.01 0.606-5.017 4.041-3.951 1.625C110.929 70.486 123.744 64.882 143.889 70.731z" fill="#73625b" stroke-width="none" opacity="1"></path></g><g id="svga-group-nose-single" ><path id="SvgjsPath28178" d="M92.281 116.235c-0.745 2.063 5.028 4.289 7.218 4.426 2.374 0.147 9.024-2.899 7.896-4.991 -1.185-2.197-5.63-0.286-7.547-0.286C97.94 115.384 93.276 113.479 92.281 116.235z" fill="#e4b3ab" stroke-width="none" opacity="1" stroke="none"></path><path id="SvgjsPath28179" d="M102.207 117.221c-0.243-0.522 1.194-1.333 1.748-1.493 0.777-0.226 2.505 0.238 2.438 0.831 -0.06 0.521-1.603-0.169-2.105-0.022C103.767 116.687 102.435 117.712 102.207 117.221zM95.214 116.742c0.706 0 1.753 0.457 1.945 0.057 0.229-0.479-1.56-1.065-2.086-1 -0.434 0.052-1.991 0.958-1.777 1.338C93.496 117.49 94.284 116.742 95.214 116.742z" fill="#c5796d" stroke-width="none" opacity="1" stroke="none"></path><path id="SvgjsPath28180" d="M99.857 113.479c0.669 0 1.807-0.637 1.978-1.9 0.754-5.575-0.521-20.246-1.978-20.246 -1.365 0-2.508 15.024-2.155 20.246C97.789 112.86 99.099 113.479 99.857 113.479" fill="#ffffff" stroke-width="none" opacity="0.2" stroke="none"></path></g><g id="svga-group-hair-front" ><path id="SvgjsPath28379" d="M163.476 45.849C157.957 11.071 51.814-21.979 45.016 30.572c-0.885 18.136-10.912 73.919-11.9 84.041 6.018-18.799 20.431-5.47 38.764-49.857 4.9-11.864 11.813-39.917 31.311-41.801 9.464-0.893 16.743 3.867 19.483 12.72 8.666-4.414 8.823 13.935 10.045 23.533 1.612 12.513 0.039 18.399 7.431 27.51 0.063 0.161 1.351 1.595 1.363 1.609 11.489 12.621 22.998 12.145 25.989 24.744C168.675 118.003 161.736 45.363 163.476 45.849z" fill="#504543" stroke-width="none" opacity="0.1" stroke="none"></path><path id="SvgjsPath28380" d="M10.679 67.989c-0.08 0.52-0.14 1.05-0.18 1.58 -3.683 6.71-0.19 17.072 7.2 19.07 3.015 2.597 6.918 4.146 10.19 4.51C12.352 96.056 3.486 80.156 10.679 67.989zM140.989 150.802c1.873 11.332-8.278 12.377-17.511 19.258l-0.136-0.146c3.56-4.151 8.838-4.812 12.242-8.592 5.51-6.138-0.258-14.435 1.428-20.549 2.926-10.847 21.597-10.767 21.597-24.554 -0.088-11.4-10.183-10.74-13.68-25.996 3.991 4.223 8.235 7.215 14.113 9.352 2.064 2.779 5.38 10.297 2.086 14.754l-0.133-0.071c1.018-3.279 0.099-7.181-1.637-9.489 -1.885-2.487-3.539-2.963-5.204-3.87 6.479 8.318 6.148 15.227 6.144 15.296 0 18.127-24.507 11.586-19.896 31.825 0.395 1.726 0.462 2.093 0.595 2.789L140.989 150.802zM28.074 93.072c-0.721 0.188-1.471 0.338-2.282 0.473 -19.331 17.736 8.183 44.458 20.79 26.081l-0.148-0.132c-1.512 1.33-3.145 2.004-4.854 2.004h-0.001c-4.978-0.002-9.098-5.829-7.713-10.782 2.755-9.938 16.66-13.418 22.715-21.969 3.322-4.667 7.244-13.057 9.402-18.934l-0.181-0.083C56.737 86.019 42.105 94.836 28.074 93.072zM54.746 91.833c-2.594 6.695-17.633 13.882-13.478 23.168l0.189-0.06c-0.4-2.134 0.236-4.373 1.944-6.846 5.659-8.237 14.417-8.034 16.256-22.935l-0.188-0.059C58.019 87.842 57.463 88.981 54.746 91.833zM169.426 107.563c1.005 1.093 2.341 3.133 3.048 5.467l0.195-0.025c0.314-7.889-6.813-11.093-13.422-13.359 0.99 1.468 13.351 10.311 5.77 21.729 -6.407 9.553-20.878 9.986-24.507 22.293 0.191 2.607 1.072 5.197 1.342 8.249 1.865 3.505 1.438 5.546 0.955 6.777l0.176 0.092c2.649-3.987 0.84-6.468-0.039-8.81 -4.883-13.385 11.86-17.55 21.416-26.186C171.809 116.342 171.383 110.944 169.426 107.563zM173.211 87.674c4.254-0.131 8.963-2.941 9.957-8.197l-0.181-0.076c-3.981 5.667-9.384 4.417-10.994 3.249 4.146-3.207 6.866-7.883 7.496-13.841 0.855-8.086-2.466-16.957-6.196-21.562 0.679-4.414-0.745-5.51-3.217-7.753l-0.149 0.131c2.775 4.03-1.925 10.404-7.444 2.045 1.132 1.552 2.68 3.229 4.529 3.746 -5.866-36.958-29.602-49.74-43.027-44.981C79.132-29.613 36.629 3.565 29.402 59.413c-8.654-6.647-17.233-1.502-18.283 9.256 -2.856 27.867 36.579 37.724 57.34-6.717 5.763-12.363 13.758-38.861 34.479-40.863 0.731-0.07 1.461-0.106 2.166-0.106 8.938 0 15.002 5.705 17.664 14.319 9.215-4.692 12.382 13.048 13.681 23.25 1.714 13.297 0.041 19.554 7.897 29.234 0.067 0.171 1.436 1.697 1.448 1.711 12.213 13.413 23 8.257 26.729 19.893 1.64 5.134-1.395 9.365-4.83 13.418 1.683-0.594 5.142-0.965 8.508-2.992C187.004 113.299 188.721 98.575 173.211 87.674z" fill="#504543" stroke-width="none" opacity="1" stroke="none"></path><path id="SvgjsPath28381" d="M80.007 36.444c3.484-8.505 13.429-16.407 28.114-15.8 7.039 0.291 15.361 8.612 14.549 15.101C113.548 27.292 93.276 27.292 80.007 36.444z" fill="#31221f" stroke-width="none" opacity="1" stroke="none"></path><path id="SvgjsPath28382" d="M170.429 39.816c2.258 2.056 3.086 2.956 2.981 5.889 -1.468 6.625-9.488 4.38-13.608 0.529C167.771 50.245 173.41 45.705 170.429 39.816zM183.168 79.478l-0.05-0.021c-0.736 1.761-1.699 3.408-3.118 4.827 -7 5-16 2-22-3 4.172 4.768 9.765 6.677 15.508 6.609 -0.101-0.072-0.195-0.147-0.297-0.219C177.465 87.543 182.174 84.733 183.168 79.478zM21 106.283c0.924-5.081 3.351-9.303 6.474-13.071 0 0-0.799 0.187-1.682 0.333 -13.494 12.38-4.18 29.248 7.159 31.901C25.569 121.724 20.294 114.754 21 106.283zM65.802 69.73c-1.389 5.293-6.815 15.637-9.221 19.017 -6.055 8.55-19.96 12.031-22.715 21.969 -1.832 6.554 5.961 14.591 12.568 8.778l0.148 0.132c-0.396 0.577-0.815 1.104-1.248 1.604 -11.551 8.911-20.499-8.806-11.334-17.946C43.878 93.434 57.354 93.212 65.802 69.73zM27.801 93.135c-13.83 3.412-24.862-12.053-17.122-25.146 -0.08 0.52-0.14 1.05-0.18 1.58 -3.683 6.71-0.19 17.072 7.2 19.07C20.688 91.213 24.547 92.754 27.801 93.135zM169.188 122.389c-1.076 0.251-1.021 0.252-1.494 0.419 3.436-4.053 6.47-8.284 4.83-13.418 -3.797-11.849-14.94-6.297-27.454-20.715 -0.021-0.132-0.021-0.132 0 0 -8.636-9.933-6.913-16.879-8.62-30.123 -1.299-10.201-4.466-27.941-13.681-23.25 -3.2-10.356-10.696-15.091-19.83-14.213 -20.72 2.001-28.716 28.5-34.479 40.863C50.633 100.11 19.085 98.196 12.309 79.394c2.157 2.185 8.936 7.523 11.927 8.292C40.55 91.879 52 82.284 59 67.284c10-22 21-60 51-52 6 2 13 8 14 16 1-4 5.137-1.504 6-1 7.536 4.402 8 31 12 47 2 8 8 13 14 16 9 4 25 10 19 22 6.769-4.062 8.493-11.33 7.043-18.394C187.865 106.951 183.654 119.025 169.188 122.389zM161.129 114.329l-0.133-0.071c1.017-3.275 0.104-7.174-1.637-9.489 -1.885-2.487-3.539-2.963-5.204-3.87 4.465 5.581 6.358 12.247 6.144 15.296 0 8.941-6.206 12.02-11.986 15.351 4.062-3.166 8.695-5.614 10.688-10.262 1.146-3.44 1.423-9.372-2.048-13.682 -11.664-14.484-11.253-14.337-11.94-17.292 3.938 3.995 7.768 6.989 14.031 9.265C161.107 102.354 164.423 109.872 161.129 114.329zM172.669 113.004l-0.195 0.025c-0.707-2.334-2.043-4.374-3.048-5.467 1.957 3.382 2.383 8.779-5.066 16.228 -9.556 8.636-26.299 12.801-21.416 26.186 0.879 2.342 2.688 4.822 0.039 8.81l-0.176-0.092c0.483-1.231 0.91-3.272-0.955-6.777 -0.27-3.052-1.15-5.642-1.342-8.249 3.629-12.307 18.1-12.74 24.507-22.293 7.571-11.404-4.733-20.192-5.77-21.729C165.855 101.911 172.983 105.115 172.669 113.004zM138.919 11.468c1.651-0.094 6.902 0.992 11.702 5.47 0.264 0.246 1.177 0.876 1.267 1.242 -0.053-0.213-0.432-0.529-0.565-0.695 -8.649-10.731-20.844-10.137-26.215 1.18C128.837 12.739 132.46 11.238 138.919 11.468zM125.292 12.5c3.131-6.863 6.52-8.033 11.678-9.144 -2.425 0.7-4.488 1.909-6.559 3.308C128.204 8.155 126.642 10.248 125.292 12.5zM98.428-3.456c6.193 0.112 9.726 0.061 15.894 2.858 3.988 1.808 8.072 6.634 9.125 10.58 0.092 0.343 0.146 0.956 0.357 1.247 -0.157-0.216-0.236-0.559-0.338-0.802 -0.903-2.179-2.23-4.043-3.886-5.615 -3.045-2.892-9.305-6.081-13.272-7.017C103.713-2.817 101.07-3.128 98.428-3.456zM85.466 8.464c8.818-2.963 18.533-4.691 27.102-0.052 7.246 3.922 12.452 15.885 12.019 21.152 0.035-0.425-0.144-0.972-0.211-1.389 -0.442-2.74-1.213-5.677-3.733-9.784C112.622 5.322 100.155 4.512 85.466 8.464zM125.088 25.336c4.646-5.594 9.915-8.012 15.557-3.422 3.039 2.473 5.411 7.471 7.541 12.139 0.311 0.68 1.049 1.718 1.128 2.47 -0.023-0.226-3.622-5.88-3.745-6.071C137.46 18.09 132.274 18.675 125.088 25.336zM128.878 28.23c2.147-0.928 5.885-2.564 10.627 3.72 8.927 11.829 8.434 30.24 9.228 31.829 0 0-2.488-11.189-5.874-20.503C140.502 36.333 136.774 24.89 128.878 28.23zM129.505 0.941c-5.084 7.857-4.512 12.572-4.862 14.069C124.643 10.098 124.247 7.338 129.505 0.941zM51.946 19.75C56.418 12.484 62.261 5.563 69.609 1.06c8.727-4.957 20.542-5.78 22.963-5.192 -0.413-0.1-1.087 0.085-1.501 0.125C79.942-2.928 67.39 4.184 60.268 10.735 57.229 13.53 54.565 16.566 51.946 19.75zM84.603 10.169c-10.324 3.203-16.542 11.63-21.404 21.625C54.049 50.6 52.301 58.256 50.5 65.223 50.759 64.223 56.146 16.17 84.603 10.169zM22.081 63.668c-3.561 8.263 7.553 11.926 16.005 5.157 1.625-1.303 3.44-3.105 4.366-5.016C34.34 80.548 16.562 73.076 22.081 63.668zM19.685 76.354c3.221 6.726 11.029 8.173 17.526 5.532C47.338 77.77 48.468 69.088 49.138 67.6c-0.467 1.039-0.135 3.909-2.753 8.552C39.323 88.671 23.116 86.441 19.685 76.354zM151.572 46.991c5.011 7.583 12.652 33.006 27.642 15.851 -1.259 1.44-7.862 12.561-17.513 4.278 -2.713-2.719-4.492-6.374-6.011-9.85C154.922 55.511 151.572 46.991 151.572 46.991z" fill="#413230" stroke-width="none" opacity="1" stroke="none"></path><path id="SvgjsPath28383" d="M11.021 72.976c-0.083-1.398-0.053-2.837 0.098-4.307 0.713-7.312 4.967-12.225 10.584-12.225 2.024 0 4.145 0.678 6.218 1.957C18.393 55.373 12.423 63.637 11.021 72.976zM26.458 88.002c0.412 0.124 0.996 0.163 1.375 0.362 -1.165-0.611-2.362-1.095-3.475-1.823 -8.705-5.689-9.406-16.603-5.602-22.126 2-2.904 4.856-4.222 8.06-5.354C10.56 60.979 8.307 82.551 26.458 88.002zM68.477 36.558c8.522-15.251 18.99-26.346 36.584-25.088 8.769 0.627 12.573 5.472 13.573 6.249 -0.695-0.54-1.208-1.363-1.875-1.952C106 6.247 83.032 6.989 67.955 31.316 53.86 54.056 59.573 79.009 36.972 88.124 58.752 80.897 55.694 59.44 68.477 36.558zM140.555 15.934c4.046 2.542 6.225 7.406 8.431 11.449 3.468 6.355 11.339 20.026 18.525 19.247 -0.817 0.088-2.025-0.526-2.74-0.868 -6.921-3.315-10.014-14.387-13.951-20.79 -7.076-11.503-13.41-15.536-23.121-6.073C131.361 16.098 136.013 13.079 140.555 15.934zM150.674 55.099c0.313 0 1.294 3.863 1.411 4.243 3.23 10.488 5.633 20.354 13.769 24.604 3.326 1.738 7.543 1.937 11.065 0.615 -1.68 0.63-6.101 0.697-9.473-1.113C159.407 79 154.645 62.505 150.674 55.099 150.673 55.099 151.021 55.748 150.674 55.099zM162.796 64.039c8.201 8.268 16.567-2.15 16.567-2.15 -0.07-0.044-1.289 0.962-1.435 1.061 -5.791 3.958-11.011 5.188-19.353-9.521 -1.483-2.614-2.706-5.6-4.612-7.941C156.498 50.831 158.454 59.661 162.796 64.039zM160.279 89.302c9.286 3.633 14.87 4.469 17.569 14.461 0.243 0.9 0.716 2.036 0.731 2.972 -0.015-0.868-0.262-1.837-0.415-2.689 -2.922-16.191-16.892-13.159-24.917-22.424 -7.583-8.756-6.702-24.363-14.525-44.845C147.298 66.178 140.782 81.67 160.279 89.302zM72.029-3.178c1.241-1.198 3.136-1.921 4.725-2.482 7.571-2.674 15.332-1.807 21.078-1.52 13.311 0.664 19.81 4.694 25.242 10.029C109.762-14.638 80.875-11.717 72.029-3.178zM44.67 22.597c-1.168 2.621-2.494 5.509-3.051 8.347 0.083-0.421 0.374-0.872 0.547-1.259 2.896-6.466 5.574-10.3 9.528-15.151 3.799-5.568 9.38-11.069 15.787-13.439C59.604 3.042 50.129 10.354 44.67 22.597zM39.039 55.777c-0.198 1.042-0.562 2.207-0.573 3.274 0.009-0.869 0.568-1.976 0.821-2.793 2.163-7.005 3.842-10.827 6.375-17.01 2.431-5.937 3.638-11.355 10.621-20.705C45.945 29.388 41.813 41.125 39.039 55.777zM55.375 27.942c-2.789 4.838-6.141 16.149-6.712 20.02 0.157-1.067 2.891-7.599 3.657-9.29 1.558-3.547 3.591-6.816 5.289-10.283 6.162-12.574 12.357-15.401 14.494-16.916C65.062 14.781 60.126 19.601 55.375 27.942zM32.739 77.635c3.527 0.049 6.748-1.36 9.404-3.594 4.966-4.177 5.505-15.654 5.311-16.667 0.115 0.6-0.32 1.634-0.458 2.207 -2.021 8.361-5.425 11.157-6.411 12.335 -5.188 6.198-12.555 4.282-16.445 4.018C26.818 76.805 29.872 77.932 32.739 77.635zM135.581 7.312c2.286-0.523 5.451-1.355 8.763 0.376 0.767 0.4 1.354 0.956 2.052 1.447 -0.68-0.478-1.141-1.345-1.83-1.865 -4.273-3.233-12.625-4.116-18.211 7.018C128.618 11.019 131.579 8.227 135.581 7.312zM141.364 31.847c5.162 8.297 6.934 15.202 6.99 16.202 -0.257-4.489-2.794-13.511-5.681-17.594 -4.828-6.831-10.648-9.3-16.343-2.971C132.43 21.999 136.994 24.823 141.364 31.847zM115.443 7.317c4.175 3.956 6.33 6.555 8.45 11.981 0.154 0.395 0.785 1.475 0.709 1.904 0.18-1-2.36-12.5-8.289-16.704 -5.316-3.771-11.695-5.085-18.12-4.544C104.688 0.582 110.647 2.773 115.443 7.317zM26.531 114.318c0.908 3.285 3.005 5.68 5.192 8.166 -2.104-2.392-3.806-5.666-4.187-8.842 -1.254-10.454 14.183-19.624 18.236-22.463C35.697 96.374 23.477 103.265 26.531 114.318zM159 121.284c0.902-2.707 1.123-5.713 0.253-8.457 -1.509-4.762-10.313-12.876-13.038-18.543 2.083 9.288 12.847 11.595 12.382 22.561 -0.573 13.472-20.439 13.494-21.831 25.208 -0.852 7.131 5.628 15.771-4.449 21.886 -2.313 1.404-4.846 2.436-6.994 4.104 -1.688 1.312-2.598 2.547-1.235 1.572 6.083-4.354 11.355-5.69 14.86-9.83 5.911-6.979-2.328-15.025 2.204-22.31C144.34 132.352 155.849 128.633 159 121.284 160.102 117.979 157.008 125.932 159 121.284z" fill="#5f5a59" stroke-width="none" opacity="1" stroke="none"></path><path id="SvgjsPath28384" d="M173.609 87.849c5.387-0.243 8.898-3.05 9.87-9.46 -3.175 4.882-8.078 5.779-11.181 4.17 11.266-8.857 8.878-24.411 1.141-35.03 0.742-3.228 0.077-6.223-4.45-8.89 2.911 2.471 1.497 7.196-1.66 6.74 -4.094-36.541-26.934-49.917-43.39-45.29 -13.518-9.722-28.565-14.841-45.87-10.29 -34.667 9.075-43.87 39.112-48.83 69.36 -2.077-1.411-4.948-3.106-7.42-3.13 -6.215-0.062-10.224 5.815-11.05 11.39 -8.445 12.359 0.59 28.023 14.71 26.25 -16.989 15.276 1.356 38.655 15.81 30.931 2.886-1.545 5.02-4.014 6-6.07 -4.84 6.229-13.562 0.649-13.23-5.819 0.458-8.869 13.948-13.878 20.28-20.321 -2.623 5.241-18.354 13.693-12.89 23.1 0.005 0 0.197 0.315 0.2 0.32 -2.039-12.234 16.625-11.175 18.2-31.201 11.19-20.805 16.276-50.683 34.67-60.46 10.764-5.729 23.353-3.221 28.26 11.44 12.934-7.735 13.381 35.532 13.93 38.91 0.96 6.084 4.058 11.426 8.271 15.91 2.857 13.654 9.712 13.542 12.34 21.32 0.77 2.29 0.88 4.98 0.319 7.32 -2.92 12.169-24.624 10.664-21.47 27.59 0.858 4.641 3.469 11.16-2.5 15.92 -3.733 2.997-8.958 4.384-11.45 8.729 9.444-7.482 20.484-8.248 19.74-19.079 1.473 3.192 1.471 5.439-0.27 8.369 0.026-0.029 0.779-0.87 0.779-0.909 6.333-7.552-4.379-11.542 2.33-20.29 5.887-7.674 30.81-16.702 25.37-30.301 0.769 1.268 1.858 3.806 2.29 5.04 -0.467 3.046-2.945 6.55-4.96 8.811 2.138-0.488 5.975-1.001 9.36-3.101C188.461 112.611 188.531 97.843 173.609 87.849zM17.099 88.099c-5.549-2.098-9.671-11.194-6.64-18.01C10.096 76.51 12.36 83.723 17.099 88.099zM10.679 67.989c-0.08 0.52-0.14 1.05-0.18 1.58 -3.683 6.71-0.19 17.072 7.2 19.07 3.015 2.597 6.918 4.146 10.19 4.51C12.352 96.056 3.486 80.156 10.679 67.989zM43.319 108.039c-1.445 2.091-2.427 4.432-1.96 6.921 -4.132-9.234 10.863-16.337 13.48-23.091 2.703-2.825 3.257-3.958 4.72-6.72C57.729 99.98 48.978 99.804 43.319 108.039zM56.499 88.689c-6.028 8.513-19.968 12.038-22.73 22 -1.855 6.634 6.043 14.762 12.73 8.88 -12.518 18.248-39.865-8.311-20.64-25.95 0.76-0.11 1.51-0.26 2.24-0.45 9.674 1.281 22.187-2.964 31.63-14.32 0.01 0 0.02-0.01 0.02-0.02 2.33-2.8 4.37-5.87 6.14-9.05C63.784 75.512 59.826 84.015 56.499 88.689zM123.419 169.979c3.541-4.132 8.822-4.794 12.24-8.59 5.546-6.178-0.225-14.516 1.45-20.59 2.91-10.792 21.6-10.715 21.6-24.58 -0.088-11.373-10.232-11.034-13.6-25.661 4.459 4.709 9.038 7.344 13.899 9.11 1.941 2.641 5.329 10.15 2.04 14.601 1.165-3.166 0.117-7.266-1.609-9.561 -2.066-2.728-3.826-3.043-5.681-4.15 6.864 8.566 6.44 15.63 6.44 15.63 0 17.419-23.907 12.546-20.25 30.23 0.196 1 0.624 2.692 0.89 4.09 -0.01-0.01-0.029-0.021-0.05-0.03 0.021 0.01 0.03 0.021 0.05 0.04C142.928 162.06 132.769 163.011 123.419 169.979zM161.739 124.229c-6.924 6.401-17.294 8.011-21.15 18.88 -0.306-10.538 13.433-10.289 18.5-19.979 1.69-3.222 1.953-7.32 1.601-8.061 0-2.538-1.591-7.867-6.271-13.88 7.516 4.415 7.361 11.318 6.431 13.481 2.209-1.546 3.365-7.719-0.98-14.281C168.039 107.914 169.85 116.119 161.739 124.229zM168.899 106.919c2.592 3.737 2.784 9.406-4.61 16.801 -9.573 8.647-26.357 12.809-21.439 26.29 0.885 2.365 2.672 4.772 0.05 8.72 0.597-1.519 0.777-3.598-0.96-6.86 -0.248-2.982-1.139-5.604-1.33-8.21 3.622-12.24 18.049-12.624 24.49-22.229 7.605-11.455-4.923-20.591-5.601-21.591 2.891 1.01 13.438 3.935 13.07 13.161C171.748 110.289 169.995 107.801 168.899 106.919zM176.149 119.729c-3.326 2.004-7.141 2.506-8.141 2.86 3.398-4.015 6.219-8.195 4.61-13.23 -3.758-11.723-14.523-6.502-26.75-19.93 -0.112-0.122-1.376-1.544-1.43-1.68 -7.846-9.677-6.185-15.976-7.891-29.21 -1.295-10.17-4.581-28.055-13.72-23.38 -2.851-9.242-9.671-15.153-19.9-14.17 -20.827 2.012-28.627 28.2-34.56 40.92 0 0.01 0 0.02-0.01 0.03 -20.624 44.127-59.998 34.618-57.14 6.74 1.021-10.465 9.459-15.968 18.26-9.08 7.36-57.481 50.768-88.344 94.45-59.08 14.854-4.919 37.499 9.926 42.96 44.76 -2.972-0.829-6.056-5.883-6.72-8.19 0.49 1.76 1.42 3.45 2.44 4.95 5.747 8.061 10.12 1.48 7.399-2.47 2.901 2.632 3.636 3.35 3.19 7.63 0.01 0.03 0.01 0.05-0.01 0.08 5.651 6.941 11.34 25.178-1.101 35.17h-0.01c-0.08 0.07-0.17 0.14-0.25 0.2 1.095 0.924 6.884 3.011 11.24-3.19 -0.965 5.104-5.571 8.12-10.17 8.12C188.649 98.474 186.91 113.239 176.149 119.729z" fill="#221512" stroke-width="none" opacity="1" stroke="none"></path></g><g id="svga-group-glasses-single" ><path id="SvgjsPath28385" d="M52.7 78.99c11.69 3.22 28.34-0.15 40.03 7.14 -0.08 0.44-0.16 0.87-0.25 1.31 -0.64 2.91-3.23 4.82-6.36 5.38 -8.44 1.51-22.57 1.32-30.84 0.74 -1.19-0.08-2.16-0.9-2.36-2C52.11 87.2 51.8 83.54 52.7 78.99zM106.69 80.35c0.05 2.48 0.32 4.73 0.83 7.1 0.63 2.91 3.23 4.82 6.36 5.38 8.44 1.51 22.57 1.32 30.84 0.74 1.19-0.08 2.16-0.9 2.36-2 0.31-1.69 0.55-3.28 0.67-4.85 -11.7-8.04-28.85-4.44-40.84-7.71C106.77 79.44 106.68 79.89 106.69 80.35z" fill="#ffffff" stroke-width="none" opacity="0.2"></path><path id="SvgjsPath28386" d="M93.31 80.35c-0.05 2.02-0.24 3.88-0.58 5.78 -11.69-7.3-28.35-3.92-40.03-7.14 0.03-0.12 0.04-0.24 0.07-0.37 0.26-1.24 1.34-2.15 2.68-2.28 12.7-1.18 21.35-1.08 33.89-0.11C91.61 76.42 93.36 78.22 93.31 80.35zM147.24 78.63c-0.26-1.24-1.34-2.15-2.68-2.28 -12.7-1.18-21.35-1.08-33.89-0.11 -1.78 0.14-3.22 1.27-3.75 2.78 11.98 3.27 29.14-0.33 40.84 7.71C147.96 84.13 147.85 81.57 147.24 78.63z" fill="#ffffff" stroke-width="none" opacity="0.4"></path><path id="SvgjsPath28387" d="M153 78.74h-5.22c-0.02-0.07-0.02-0.14-0.04-0.21 -0.3-1.44-1.57-2.52-3.13-2.67 -12.9-1.2-21.6-1.07-33.98-0.11 -0.15 0.01-0.29 0.05-0.43 0.07l0.03-0.03c0 0-0.12 0.03-0.33 0.08 -0.09 0.02-0.19 0.04-0.28 0.06 -1.08 0.24-3.42 0.7-5.37 0.76 -3.91 0.12-4.75 0.11-8.5 0 -1.95-0.06-4.29-0.52-5.37-0.76 -0.09-0.03-0.18-0.04-0.28-0.06 -0.21-0.05-0.33-0.08-0.33-0.08l0.03 0.03c-0.14-0.02-0.28-0.06-0.43-0.07 -12.39-0.96-21.09-1.09-33.98 0.11 -1.56 0.15-2.83 1.23-3.13 2.67 -0.02 0.07-0.02 0.14-0.04 0.21H47v2.92h4.79c-0.17 1.7-0.19 3.33-0.07 4.97h1.06c-0.2-2.54-0.09-5.05 0.51-7.92 0.21-1.02 1.1-1.78 2.21-1.88 6.3-0.59 11.69-0.86 16.98-0.86 4.97 0 9.99 0.22 16.81 0.75 2 0.15 3.53 1.74 3.49 3.61 -0.05 2.2-0.28 4.22-0.69 6.29h1.07c0.39-2.02 0.62-4.02 0.67-6.27 0.01-0.66-0.13-1.28-0.39-1.85 0.33-0.07 0.85-0.16 1.51-0.21 2.51-0.18 8.07-0.14 10.11 0 0.66 0.05 1.19 0.14 1.51 0.21 -0.26 0.57-0.41 1.19-0.39 1.85 0.05 2.25 0.28 4.25 0.67 6.27h1.07c-0.41-2.07-0.64-4.09-0.68-6.29 -0.04-1.87 1.49-3.46 3.49-3.61 6.82-0.53 11.84-0.75 16.81-0.75 5.29 0 10.69 0.27 16.98 0.86 1.11 0.1 2 0.86 2.21 1.88 0.6 2.87 0.71 5.38 0.51 7.92h1.05c0.13-1.64 0.1-3.27-0.07-4.97H153V78.74z" fill="#da6972" stroke-width="none" opacity="1" stroke="none"></path></g></g></g><rect id="SvgjsRect28021" width="200" height="15" x="0" y="185" fill="#ecf0f1" opacity="0.5" style="display:none;"></rect><text id="SvgjsText28022" font-family="&quot;Roboto&quot;, &quot;Helvetica Neue&quot;, Helvetica, Arial, sans-serif" style="font-size:0.84em;font-family:&quot;Roboto&quot;, &quot;Helvetica Neue&quot;, Helvetica, Arial, sans-serif;text-anchor:middle;font-weight:400;display:none;" font-size="0.84em" text-anchor="middle" font-weight="400" fill="#000000" x="100" y="185"><tspan id="SvgjsTspan28023" dy="1.2em" x="100" style="font-size:0.84em;font-family:&quot;Roboto&quot;, &quot;Helvetica Neue&quot;, Helvetica, Arial, sans-serif;text-anchor:middle;font-weight:400;">Created on AvatarMaker.com</tspan></text></g><defs id="SvgjsDefs27989"><radialGradient id="SvgjsRadialGradient28037" cx="100" cy="113" r="40" gradientUnits="userSpaceOnUse" class="svga-on-canvas-facehighlight-gradient-single-0"><stop id="SvgjsStop28038" stop-opacity="0.5" stop-color="#fff4f3" offset="0" ></stop><stop id="SvgjsStop28039" stop-opacity="0" stop-color="#f3d4cf" offset="0.9" ></stop></radialGradient><radialGradient id="SvgjsRadialGradient28041" cx="100" cy="57" r="36" gradientUnits="userSpaceOnUse" class="svga-on-canvas-facehighlight-gradient-single-1"><stop id="SvgjsStop28042" stop-opacity="0.5" stop-color="#fff4f3" offset="0" ></stop><stop id="SvgjsStop28043" stop-opacity="0" stop-color="#f3d4cf" offset="0.9" ></stop></radialGradient><radialGradient id="SvgjsRadialGradient28231" cx="125.523" cy="88.627" r="13.218" gradientTransform="matrix(-1.0975 0.096 0.0956 1.0928 203.2283 -20.8703)" gradientUnits="userSpaceOnUse" class="svga-on-canvas-eyesback-gradient-left-0"><stop id="SvgjsStop28232" stop-opacity="1" stop-color="#ffffff" offset="0" ></stop><stop id="SvgjsStop28233" stop-opacity="1" stop-color="#fdfefe" offset="0.544" ></stop><stop id="SvgjsStop28234" stop-opacity="1" stop-color="#f6f8f9" offset="0.74" ></stop><stop id="SvgjsStop28235" stop-opacity="1" stop-color="#eaeff2" offset="0.879" ></stop><stop id="SvgjsStop28236" stop-opacity="1" stop-color="#d9e3e8" offset="0.992" ></stop><stop id="SvgjsStop28237" stop-opacity="1" stop-color="#d8e2e7" offset="1" ></stop></radialGradient><radialGradient id="SvgjsRadialGradient28239" cx="125.523" cy="88.627" r="13.218" gradientTransform="matrix(1.0975 0.096 -0.0956 1.0928 -3.2288 -20.8703)" gradientUnits="userSpaceOnUse" class="svga-on-canvas-eyesback-gradient-right-0"><stop id="SvgjsStop28240" stop-opacity="1" stop-color="#ffffff" offset="0" ></stop><stop id="SvgjsStop28241" stop-opacity="1" stop-color="#fdfefe" offset="0.544" ></stop><stop id="SvgjsStop28242" stop-opacity="1" stop-color="#f6f8f9" offset="0.74" ></stop><stop id="SvgjsStop28243" stop-opacity="1" stop-color="#eaeff2" offset="0.879" ></stop><stop id="SvgjsStop28244" stop-opacity="1" stop-color="#d9e3e8" offset="0.992" ></stop><stop id="SvgjsStop28245" stop-opacity="1" stop-color="#d8e2e7" offset="1" ></stop></radialGradient><radialGradient id="SvgjsRadialGradient28247" cx="125.523" cy="88.627" r="13.218" gradientTransform="matrix(-1.0975 0.096 0.0956 1.0928 203.2283 -20.8703)" gradientUnits="userSpaceOnUse" class="svga-on-canvas-eyesfront-gradient-left-0"><stop id="SvgjsStop28248" stop-opacity="1" stop-color="#ffffff" offset="0" ></stop><stop id="SvgjsStop28249" stop-opacity="1" stop-color="#fdfefe" offset="0.544" ></stop><stop id="SvgjsStop28250" stop-opacity="1" stop-color="#f6f8f9" offset="0.74" ></stop><stop id="SvgjsStop28251" stop-opacity="1" stop-color="#eaeff2" offset="0.879" ></stop><stop id="SvgjsStop28252" stop-opacity="1" stop-color="#d9e3e8" offset="0.992" ></stop><stop id="SvgjsStop28253" stop-opacity="1" stop-color="#d8e2e7" offset="1" ></stop></radialGradient><radialGradient id="SvgjsRadialGradient28257" cx="122.915" cy="85.507" fx="136.35" fy="84.425" r="17.038" gradientTransform="matrix(0.9926 0.1216 0.1079 -0.8805 -54.1424 145.8439)" gradientUnits="userSpaceOnUse" class="svga-on-canvas-eyesfront-gradient-left-3"><stop id="SvgjsStop28258" stop-opacity="1" stop-color="#e4b3ab" offset="0" ></stop><stop id="SvgjsStop28259" stop-opacity="0.3" stop-color="#e4b3ab" offset="0.7" ></stop><stop id="SvgjsStop28260" stop-opacity="0" stop-color="#f3d4cf" offset="1" ></stop></radialGradient><radialGradient id="SvgjsRadialGradient28262" cx="78.447" cy="85.328" r="26.192" gradientTransform="matrix(0.7158 -0.1012 0.1016 0.7275 7.9808 45.9445)" gradientUnits="userSpaceOnUse" class="svga-on-canvas-eyesfront-gradient-left-4"><stop id="SvgjsStop28263" stop-opacity="0" stop-color="#000000" offset="0.9" ></stop><stop id="SvgjsStop28264" stop-opacity="0.3" stop-color="#000000" offset="1" ></stop></radialGradient><radialGradient id="SvgjsRadialGradient28268" cx="125.523" cy="88.627" r="13.218" gradientTransform="matrix(1.0975 0.096 -0.0956 1.0928 -3.2288 -20.8703)" gradientUnits="userSpaceOnUse" class="svga-on-canvas-eyesfront-gradient-right-0"><stop id="SvgjsStop28269" stop-opacity="1" stop-color="#ffffff" offset="0" ></stop><stop id="SvgjsStop28270" stop-opacity="1" stop-color="#fdfefe" offset="0.544" ></stop><stop id="SvgjsStop28271" stop-opacity="1" stop-color="#f6f8f9" offset="0.74" ></stop><stop id="SvgjsStop28272" stop-opacity="1" stop-color="#eaeff2" offset="0.879" ></stop><stop id="SvgjsStop28273" stop-opacity="1" stop-color="#d9e3e8" offset="0.992" ></stop><stop id="SvgjsStop28274" stop-opacity="1" stop-color="#d8e2e7" offset="1" ></stop></radialGradient><radialGradient id="SvgjsRadialGradient28278" cx="122.915" cy="85.507" fx="136.35" fy="84.425" r="17.038" gradientTransform="matrix(-0.9926 0.1216 -0.1079 -0.8805 254.1424 145.8439)" gradientUnits="userSpaceOnUse" class="svga-on-canvas-eyesfront-gradient-right-3"><stop id="SvgjsStop28279" stop-opacity="1" stop-color="#e4b3ab" offset="0" ></stop><stop id="SvgjsStop28280" stop-opacity="0.3" stop-color="#e4b3ab" offset="0.7" ></stop><stop id="SvgjsStop28281" stop-opacity="0" stop-color="#f3d4cf" offset="1" ></stop></radialGradient><radialGradient id="SvgjsRadialGradient28283" cx="78.447" cy="85.328" r="26.192" gradientTransform="matrix(-0.7158 -0.1012 -0.1016 0.7275 192.0192 45.9445)" gradientUnits="userSpaceOnUse" class="svga-on-canvas-eyesfront-gradient-right-4"><stop id="SvgjsStop28284" stop-opacity="0" stop-color="#000000" offset="0.9" ></stop><stop id="SvgjsStop28285" stop-opacity="0.3" stop-color="#000000" offset="1" ></stop></radialGradient><linearGradient id="SvgjsLinearGradient28295" x1="100" y1="141" x2="100" y2="137" gradientUnits="userSpaceOnUse" class="svga-on-canvas-mouth-gradient-single-0"><stop id="SvgjsStop28296" stop-opacity="1" stop-color="#ebc3bd" offset="0.1" ></stop><stop id="SvgjsStop28297" stop-opacity="1" stop-color="#e4b3ab" offset="1" ></stop></linearGradient><linearGradient id="SvgjsLinearGradient28327" x1="99.98" y1="171.27" x2="99.98" y2="136.351" gradientUnits="userSpaceOnUse" class="svga-on-canvas-chinshadow-gradient-single-0"><stop id="SvgjsStop28328" stop-opacity="0.8" stop-color="#e4b3ab" offset="0" ></stop><stop id="SvgjsStop28329" stop-opacity="1" stop-color="#c5796d" offset="0.7" ></stop></linearGradient><radialGradient id="SvgjsRadialGradient28334" cx="100" cy="100" r="150" gradientUnits="userSpaceOnUse" class="svga-on-canvas-backs-gradient-single-1"><stop id="SvgjsStop28335" stop-opacity="0" stop-color="#f1d4af" offset="0" ></stop><stop id="SvgjsStop28336" stop-opacity="1" stop-color="#e2bd8d" offset="0.2" ></stop><stop id="SvgjsStop28337" stop-opacity="0" stop-color="#e2bd8d" offset="1" ></stop></radialGradient><linearGradient id="SvgjsLinearGradient28360" x1="128" y1="106" x2="128" y2="69" gradientUnits="userSpaceOnUse" class="svga-on-canvas-glasses-gradient-single-1"><stop id="SvgjsStop28361" stop-opacity="0.95" stop-color="#da6972" offset="0" ></stop><stop id="SvgjsStop28362" stop-opacity="1" stop-color="#da6972" offset="1" ></stop></linearGradient><linearGradient id="SvgjsLinearGradient28364" x1="72" y1="106" x2="72" y2="69" gradientUnits="userSpaceOnUse" class="svga-on-canvas-glasses-gradient-single-2"><stop id="SvgjsStop28365" stop-opacity="0.95" stop-color="#da6972" offset="0" ></stop><stop id="SvgjsStop28366" stop-opacity="1" stop-color="#da6972" offset="1" ></stop></linearGradient><radialGradient id="SvgjsRadialGradient28390" cx="-558.588" cy="-490.918" r="84.646" gradientTransform="matrix(0.096 -0.0248 0.0245 0.0961 140.5478 120.3577)" gradientUnits="userSpaceOnUse" class="svga-on-canvas-eyesiris-gradient-left-1"><stop id="SvgjsStop28391" stop-opacity="0.8" stop-color="#ffffff" offset="0" ></stop><stop id="SvgjsStop28392" stop-opacity="0" stop-color="#ffffff" offset="1" ></stop></radialGradient><radialGradient id="SvgjsRadialGradient28394" cx="-565.337" cy="-492.691" r="84.644" gradientTransform="matrix(0.0991 8.856325e-004 -0.0011 0.0991 130.3774 136.3533)" gradientUnits="userSpaceOnUse" class="svga-on-canvas-eyesiris-gradient-left-2"><stop id="SvgjsStop28395" stop-opacity="0.8" stop-color="#ffffff" offset="0" ></stop><stop id="SvgjsStop28396" stop-opacity="0" stop-color="#ffffff" offset="1" ></stop></radialGradient><linearGradient id="SvgjsLinearGradient28400" x1="122.283" y1="93.047" x2="123.61" y2="91.466" gradientTransform="matrix(1 0 0 1 -52 0)" gradientUnits="userSpaceOnUse" class="svga-on-canvas-eyesiris-gradient-left-5"><stop id="SvgjsStop28401" stop-opacity="1" stop-color="#ffffff" offset="0" ></stop><stop id="SvgjsStop28402" stop-opacity="0" stop-color="#ffffff" offset="1" ></stop></linearGradient><linearGradient id="SvgjsLinearGradient28404" x1="127" y1="85" x2="125" y2="87" gradientTransform="matrix(1 0 0 1 -50 0)" gradientUnits="userSpaceOnUse" class="svga-on-canvas-eyesiris-gradient-left-6"><stop id="SvgjsStop28405" stop-opacity="1" stop-color="#ffffff" offset="0" ></stop><stop id="SvgjsStop28406" stop-opacity="0" stop-color="#ffffff" offset="1" ></stop></linearGradient><linearGradient id="SvgjsLinearGradient28408" x1="130" y1="81" x2="126" y2="85" gradientTransform="matrix(1 0 0 1 -50 0)" gradientUnits="userSpaceOnUse" class="svga-on-canvas-eyesiris-gradient-left-7"><stop id="SvgjsStop28409" stop-opacity="1" stop-color="#ffffff" offset="0" ></stop><stop id="SvgjsStop28410" stop-opacity="0" stop-color="#ffffff" offset="1" ></stop></linearGradient><radialGradient id="SvgjsRadialGradient28413" cx="-578.76" cy="-490.73" r="84.646" gradientTransform="matrix(0.096 -0.0248 0.0245 0.0961 192.4794 119.8404)" gradientUnits="userSpaceOnUse" class="svga-on-canvas-eyesiris-gradient-right-1"><stop id="SvgjsStop28414" stop-opacity="0.8" stop-color="#ffffff" offset="0" ></stop><stop id="SvgjsStop28415" stop-opacity="0" stop-color="#ffffff" offset="1" ></stop></radialGradient><radialGradient id="SvgjsRadialGradient28417" cx="-584.778" cy="-487.329" r="84.644" gradientTransform="matrix(0.0991 8.856325e-004 -0.0011 0.0991 182.3104 135.839)" gradientUnits="userSpaceOnUse" class="svga-on-canvas-eyesiris-gradient-right-2"><stop id="SvgjsStop28418" stop-opacity="0.8" stop-color="#ffffff" offset="0" ></stop><stop id="SvgjsStop28419" stop-opacity="0" stop-color="#ffffff" offset="1" ></stop></radialGradient><linearGradient id="SvgjsLinearGradient28423" x1="120.284" y1="93.047" x2="121.611" y2="91.467" gradientUnits="userSpaceOnUse" class="svga-on-canvas-eyesiris-gradient-right-5"><stop id="SvgjsStop28424" stop-opacity="1" stop-color="#ffffff" offset="0" ></stop><stop id="SvgjsStop28425" stop-opacity="0" stop-color="#ffffff" offset="1" ></stop></linearGradient><linearGradient id="SvgjsLinearGradient28427" x1="127" y1="85" x2="125" y2="87" gradientUnits="userSpaceOnUse" class="svga-on-canvas-eyesiris-gradient-right-6"><stop id="SvgjsStop28428" stop-opacity="1" stop-color="#ffffff" offset="0" ></stop><stop id="SvgjsStop28429" stop-opacity="0" stop-color="#ffffff" offset="1" ></stop></linearGradient><linearGradient id="SvgjsLinearGradient28431" x1="130" y1="81" x2="126" y2="85" gradientUnits="userSpaceOnUse" class="svga-on-canvas-eyesiris-gradient-right-7"><stop id="SvgjsStop28432" stop-opacity="1" stop-color="#ffffff" offset="0" ></stop><stop id="SvgjsStop28433" stop-opacity="0" stop-color="#ffffff" offset="1" ></stop></linearGradient></defs></svg>